<svg width="400" height="72" viewBox="0 0 400 72" fill="none" xmlns="http://www.w3.org/2000/svg">
<path fill-rule="evenodd" clip-rule="evenodd" d="M352.042 2.19516L353.95 0H292.087L284.025 5.61852L286.441 0H232.978L230.095 9.14683L229.06 0H170.844L173.532 3.23821L157.86 0H101.622L101.126 3.09338L90.9235 0H35.3946L31.1049 5.84471L26.9333 0H0V72H24.9418L21.5309 67.6819L39.4031 72H99.4087L99.1476 64.286L101.871 72H175.769L181.603 62.4132L179.52 72H232.203L232.259 71.2934L250.617 71.6841L250.066 72H300.816L303.392 67.3909L304.572 72H364.475L371.846 68.4939L371.226 72H400V47.0959L398.188 50.6637L399.264 18.1353L400 18.8585V0H364.619L352.042 2.19516Z" fill="#FCEFDE"/>
</svg>
