<svg width="294" height="390" viewBox="0 0 294 390" fill="none" xmlns="http://www.w3.org/2000/svg">
<g filter="url(#filter0_b_342_474)">
<mask id="path-1-outside-1_342_474" maskUnits="userSpaceOnUse" x="0" y="0" width="294" height="390" fill="black">
<rect fill="white" width="294" height="390"/>
<path fill-rule="evenodd" clip-rule="evenodd" d="M89.7738 2H199.447L201.09 14.4553L218.631 2H292V49.7376L284.63 64.3953L292 66.6189V189.842L286.335 189.784L292 210.813V326.162L283.611 337.316L292 335.965V388H232.163L196.435 380.032L197.486 388H98.7892L104.677 377.186L75.6031 388H2V326.119L8.95098 319.86L2 313.547V190.01L6.9284 190.828L2 161.362V75.1061L12.5323 60.0869L2 54.5306V2H77.7041L83.8323 12.9125L89.7738 2Z"/>
</mask>
<path fill-rule="evenodd" clip-rule="evenodd" d="M89.7738 2H199.447L201.09 14.4553L218.631 2H292V49.7376L284.63 64.3953L292 66.6189V189.842L286.335 189.784L292 210.813V326.162L283.611 337.316L292 335.965V388H232.163L196.435 380.032L197.486 388H98.7892L104.677 377.186L75.6031 388H2V326.119L8.95098 319.86L2 313.547V190.01L6.9284 190.828L2 161.362V75.1061L12.5323 60.0869L2 54.5306V2H77.7041L83.8323 12.9125L89.7738 2Z" fill="#FCEFDE"/>
<path d="M199.447 2L201.43 1.73845L201.201 0H199.447V2ZM89.7738 2V0H88.5854L88.0172 1.04364L89.7738 2ZM201.09 14.4553L199.108 14.7168L199.542 18.0079L202.248 16.0859L201.09 14.4553ZM218.631 2V0H217.993L217.473 0.369308L218.631 2ZM292 2H294V0H292V2ZM292 49.7376L293.787 50.636L294 50.2121V49.7376H292ZM284.63 64.3953L282.843 63.4968L281.774 65.6227L284.052 66.31L284.63 64.3953ZM292 66.6189H294V65.1333L292.578 64.7042L292 66.6189ZM292 189.842L291.98 191.842L294 191.862V189.842H292ZM286.335 189.784L286.355 187.784L283.717 187.757L284.404 190.304L286.335 189.784ZM292 210.813H294V210.548L293.931 210.293L292 210.813ZM292 326.162L293.598 327.364L294 326.83V326.162H292ZM283.611 337.316L282.013 336.114L279.03 340.08L283.929 339.291L283.611 337.316ZM292 335.965H294V333.617L291.682 333.99L292 335.965ZM292 388V390H294V388H292ZM232.163 388L231.728 389.952L231.943 390H232.163V388ZM196.435 380.032L196.871 378.08L194.078 377.457L194.453 380.293L196.435 380.032ZM197.486 388V390H199.768L199.469 387.738L197.486 388ZM98.7892 388L97.0327 387.044L95.4231 390H98.7892V388ZM104.677 377.186L106.433 378.143L108.989 373.448L103.98 375.312L104.677 377.186ZM75.6031 388V390H75.963L76.3003 389.875L75.6031 388ZM2 388H0V390H2V388ZM2 326.119L0.661738 324.633L0 325.229V326.119H2ZM8.95098 319.86L10.2892 321.347L11.9328 319.867L10.2957 318.38L8.95098 319.86ZM2 313.547H0V314.432L0.655325 315.028L2 313.547ZM2 190.01L2.32744 188.037L0 187.651V190.01H2ZM6.9284 190.828L6.60096 192.801L9.36284 193.26L8.901 190.498L6.9284 190.828ZM2 161.362H0V161.528L0.0274012 161.692L2 161.362ZM2 75.1061L0.362501 73.9578L0 74.4747V75.1061H2ZM12.5323 60.0869L14.1698 61.2352L15.4728 59.377L13.4655 58.318L12.5323 60.0869ZM2 54.5306H0V55.7367L1.06679 56.2995L2 54.5306ZM2 2V0H0V2H2ZM77.7041 2L79.4479 1.0207L78.8747 0H77.7041V2ZM83.8323 12.9125L82.0885 13.8918L83.8594 17.0453L85.5889 13.8689L83.8323 12.9125ZM199.447 0H89.7738V4H199.447V0ZM203.073 14.1937L201.43 1.73845L197.465 2.26155L199.108 14.7168L203.073 14.1937ZM217.473 0.369308L199.932 12.8246L202.248 16.0859L219.788 3.63069L217.473 0.369308ZM292 0H218.631V4H292V0ZM294 49.7376V2H290V49.7376H294ZM286.417 65.2937L293.787 50.636L290.213 48.8391L282.843 63.4968L286.417 65.2937ZM292.578 64.7042L285.207 62.4805L284.052 66.31L291.422 68.5337L292.578 64.7042ZM294 189.842V66.6189H290V189.842H294ZM286.314 191.784L291.98 191.842L292.02 187.842L286.355 187.784L286.314 191.784ZM293.931 210.293L288.266 189.264L284.404 190.304L290.069 211.333L293.931 210.293ZM294 326.162V210.813H290V326.162H294ZM285.21 338.518L293.598 327.364L290.402 324.96L282.013 336.114L285.21 338.518ZM291.682 333.99L283.293 335.342L283.929 339.291L292.318 337.939L291.682 333.99ZM294 388V335.965H290V388H294ZM232.163 390H292V386H232.163V390ZM196 381.984L231.728 389.952L232.598 386.048L196.871 378.08L196 381.984ZM199.469 387.738L198.418 379.77L194.453 380.293L195.504 388.262L199.469 387.738ZM98.7892 390H197.486V386H98.7892V390ZM102.92 376.23L97.0327 387.044L100.546 388.956L106.433 378.143L102.92 376.23ZM76.3003 389.875L105.374 379.061L103.98 375.312L74.9059 386.125L76.3003 389.875ZM2 390H75.6031V386H2V390ZM0 326.119V388H4V326.119H0ZM7.61272 318.374L0.661738 324.633L3.33826 327.605L10.2892 321.347L7.61272 318.374ZM0.655325 315.028L7.60631 321.341L10.2957 318.38L3.34467 312.067L0.655325 315.028ZM0 190.01V313.547H4V190.01H0ZM7.25584 188.855L2.32744 188.037L1.67256 191.983L6.60096 192.801L7.25584 188.855ZM0.0274012 161.692L4.9558 191.158L8.901 190.498L3.9726 161.032L0.0274012 161.692ZM0 75.1061V161.362H4V75.1061H0ZM10.8948 58.9386L0.362501 73.9578L3.6375 76.2544L14.1698 61.2352L10.8948 58.9386ZM1.06679 56.2995L11.599 61.8558L13.4655 58.318L2.93321 52.7616L1.06679 56.2995ZM0 2V54.5306H4V2H0ZM77.7041 0H2V4H77.7041V0ZM85.5762 11.9332L79.4479 1.0207L75.9603 2.9793L82.0885 13.8918L85.5762 11.9332ZM88.0172 1.04364L82.0758 11.9562L85.5889 13.8689L91.5303 2.95636L88.0172 1.04364Z" fill="#81451E" mask="url(#path-1-outside-1_342_474)"/>
</g>
<defs>
<filter id="filter0_b_342_474" x="-70" y="-70" width="434" height="530" filterUnits="userSpaceOnUse" color-interpolation-filters="sRGB">
<feFlood flood-opacity="0" result="BackgroundImageFix"/>
<feGaussianBlur in="BackgroundImageFix" stdDeviation="35"/>
<feComposite in2="SourceAlpha" operator="in" result="effect1_backgroundBlur_342_474"/>
<feBlend mode="normal" in="SourceGraphic" in2="effect1_backgroundBlur_342_474" result="shape"/>
</filter>
</defs>
</svg>
