<svg width="1280" height="1163" viewBox="0 0 1280 1163" fill="none" xmlns="http://www.w3.org/2000/svg">
<path d="M0 1147.1C0 1155.97 5.25838 1163 11.6238 1163H1268.1C1274.46 1163 1279.72 1155.97 1279.72 1147.1V15.9011C1279.72 7.02607 1274.46 0 1268.1 0H11.6238C5.25838 0 0 7.02607 0 15.9011V1147.1Z" fill="#6D310C"/>
<path d="M11.6238 0H1268.1C1273.36 0 1277.51 4.43752 1279.17 10.724L1257.86 20.7084H36.5319C36.5319 20.7084 26.5686 19.2293 23.5243 24.0366C20.7568 29.5835 19.373 36.2397 19.373 36.2397L0 14.7917C0.276757 6.65628 5.53513 0 11.6238 0Z" fill="#D17D22"/>
<path d="M1268.65 1163H11.9023C6.64392 1163 2.49257 1158.56 0.832031 1152.28L22.1423 1142.29H1243.47C1243.47 1142.29 1253.43 1143.77 1256.48 1138.96C1259.52 1133.79 1260.63 1127.13 1260.63 1127.13L1280 1148.58C1279.73 1156.34 1274.74 1163 1268.65 1163Z" fill="#542409"/>
<path d="M94.6508 238.887C94.6508 238.887 51.2 223.725 41.2368 222.616C30.1665 221.137 19.373 224.835 19.373 224.835L0 228.163L20.2032 214.111L60.8865 220.028L197.051 234.449L294.192 242.585L198.435 241.476L94.6508 238.887Z" fill="#542409"/>
<path d="M189.856 319.502C189.026 319.872 110.704 318.762 103.508 318.762C96.3125 318.392 71.4044 314.695 67.8066 314.325C64.7623 313.955 19.3742 305.819 19.3742 305.819L6.08984 306.929L19.3742 303.231C19.3742 303.231 190.687 319.132 189.856 319.502Z" fill="#542409"/>
<path d="M19.373 328.006L66.4216 333.553L361.998 354.261C361.998 354.261 90.2227 349.824 77.4919 347.605C64.4843 345.756 50.9232 341.318 42.067 341.318C33.2108 341.318 13.5611 343.167 11.9005 343.907C10.5168 344.277 0 340.949 0 340.209C0 339.469 19.373 328.006 19.373 328.006Z" fill="#542409"/>
<path d="M19.3713 435.618L299.449 429.331C299.449 429.331 54.2426 439.315 48.154 440.425C42.0653 441.534 15.7734 440.425 15.7734 440.425L19.3713 435.618Z" fill="#542409"/>
<path d="M65.3158 584.272C65.3158 584.272 27.9537 577.986 26.2931 577.986C24.6326 577.986 17.1602 575.027 17.1602 575.027L19.3742 563.564C28.7839 555.798 65.3158 584.272 65.3158 584.272Z" fill="#542409"/>
<path d="M1.93788 637.524C2.4914 637.154 19.6503 621.993 19.6503 621.993L298.344 639.373C298.344 639.373 190.132 648.618 189.579 648.988C189.025 649.357 67.2525 643.81 62.2709 644.18C57.566 644.55 23.2482 636.415 21.5876 636.415C19.9271 636.045 1.93788 640.482 0.277344 641.592C0.554101 640.852 1.38437 637.894 1.93788 637.524Z" fill="#542409"/>
<path d="M47.0497 767.32C41.7913 767.69 15.2227 767.32 15.2227 767.32L19.374 761.773C19.374 761.773 203.971 744.763 205.908 744.763C207.845 744.763 281.739 769.169 281.739 769.169C281.739 769.169 198.436 761.773 191.793 761.773C185.428 761.773 52.3081 767.32 47.0497 767.32Z" fill="#542409"/>
<path d="M211.444 792.467C218.916 792.467 420.395 803.191 420.395 803.191L456.374 802.821C456.374 802.821 415.414 815.764 408.771 816.873C402.129 817.982 241.887 809.477 233.031 812.066C224.451 814.654 73.3423 813.545 69.4677 813.545C65.5931 813.175 19.3747 825.378 19.3747 825.378H0.832031L19.6515 807.628C19.3747 807.258 203.971 792.467 211.444 792.467Z" fill="#542409"/>
<path d="M66.9733 1082.01L19.3711 1069.44V1054.65C19.3711 1052.06 66.9733 1082.01 66.9733 1082.01Z" fill="#542409"/>
<path d="M55.9056 1133.05C60.3337 1132.68 190.133 1137.11 193.731 1137.48C197.328 1137.48 66.6991 1137.48 64.4851 1138.22C61.9943 1138.96 44.5586 1138.22 44.5586 1138.22C45.3889 1136 51.4775 1133.42 55.9056 1133.05Z" fill="#542409"/>
<path d="M1279.17 990.675C1279.17 990.675 1257.58 996.592 1255.92 999.18C1254.54 1001.77 1181.2 1003.25 1174.56 1003.62C1167.91 1003.99 1143.84 1003.62 1143.84 1003.62C1143.84 1003.62 1260.07 978.102 1261.73 977.362C1263.67 976.623 1279.17 990.675 1279.17 990.675Z" fill="#542409"/>
<path d="M1260.9 844.238L1279.17 853.113L1259.52 851.264C1259.52 851.264 1237.1 846.457 1230.46 846.457C1223.82 846.457 947.613 867.535 947.613 867.535L1234.89 834.254L1260.9 844.238Z" fill="#542409"/>
<path d="M1279.17 792.466V800.971L1262.01 806.148C1262.01 806.148 1194.21 808.737 1190.61 809.107C1187.01 809.476 1263.12 786.919 1263.12 786.919L1279.17 792.466Z" fill="#542409"/>
<path d="M1260.08 626.8C1258.97 626.06 1165.98 605.722 1161.55 606.461C1157.12 607.571 1039.5 598.695 1039.5 598.695C1039.5 598.695 1143.56 593.888 1148.54 593.888C1153.52 593.888 1261.74 606.461 1261.74 606.461C1261.74 606.461 1280.83 618.664 1278.89 619.034C1276.96 619.774 1261.18 627.539 1260.08 626.8Z" fill="#542409"/>
<path d="M1262.01 506.617L1275.02 513.273H1224.09L1262.01 506.617Z" fill="#542409"/>
<path d="M1155.46 471.857C1159.06 472.227 1260.35 462.612 1260.35 462.612L1279.45 477.774L1243.47 479.253C1243.47 479.253 1113.95 485.909 1108.97 486.649C1104.26 487.388 910.254 482.581 910.254 482.581C910.254 482.581 1151.86 471.487 1155.46 471.857Z" fill="#542409"/>
<path d="M1164.87 356.849L1260.63 344.276L1279.17 356.48H1259.24L1164.87 356.849Z" fill="#542409"/>
<path d="M1260.9 143.109L1141.9 143.479L1262.01 126.099L1279.17 134.974L1262.01 143.109H1260.9Z" fill="#542409"/>
<path d="M1262.01 52.1405L1240.42 53.6197V52.5103L1261.18 42.5259C1261.18 42.5259 1275.57 44.0051 1276.68 44.0051C1277.78 43.6353 1262.01 52.1405 1262.01 52.1405Z" fill="#542409"/>
<path d="M74.7258 56.9495C54.7993 56.5797 38.7474 54.361 30.4447 53.6214C25.4631 53.2516 21.8652 54.7308 19.6512 56.2099V90.9705C22.142 90.2309 28.2306 88.0122 32.9355 85.7934C39.0241 82.8351 72.235 83.2048 80.2609 83.2048C88.2868 83.2048 221.13 90.9705 216.979 90.9705C212.827 90.9705 76.1096 99.4757 69.1906 99.4757C62.2717 99.106 30.1679 97.257 24.9095 97.6268C22.4187 97.9966 20.7582 98.7361 19.3744 99.8455V112.788C39.8544 113.158 179.617 115.007 182.107 115.007C184.598 115.007 39.8544 117.226 19.3744 117.965V214.112C19.3744 214.112 57.5668 220.028 59.5041 220.028C61.4414 220.028 95.2058 236.669 99.9106 236.669C104.339 236.669 285.891 240.367 285.891 240.367C285.891 240.367 108.49 247.763 94.3755 242.586C80.5377 237.409 56.4598 228.164 45.1128 230.752C36.8101 232.601 24.9095 232.601 19.3744 232.971V303.232C23.5258 304.341 31.5517 304.711 37.6404 306.56C46.2198 309.148 186.812 319.503 188.473 319.872C190.133 320.242 98.8036 322.091 88.5636 322.091C78.0468 322.091 33.7658 313.586 27.9539 311.737C24.9095 310.997 21.8652 310.258 19.6512 309.888V328.378C22.9723 330.597 31.8285 330.966 38.1939 332.076C46.2198 333.185 79.9841 332.076 95.4825 338.362C110.981 344.279 492.629 362.399 492.629 362.399C492.629 362.399 454.159 370.534 403.79 371.644C353.42 372.753 204.525 365.727 180.447 363.878C156.369 362.029 33.489 350.196 26.2933 350.196C20.2047 350.196 19.6512 355.373 19.3744 357.222V435.248C21.5885 437.836 325.191 427.852 325.191 427.852C325.191 427.852 38.1939 447.451 26.2933 448.93C22.9723 449.3 21.035 449.67 19.6512 450.409V562.827C20.2047 564.676 20.4814 566.155 20.7582 567.264C21.8652 570.962 32.9355 572.441 39.0241 573.181C45.1128 573.92 63.3787 583.535 63.3787 583.535H25.4631L23.249 594.259L19.3744 602.764V621.994C21.3117 624.582 23.249 626.801 24.9095 627.91C29.0609 630.129 172.144 643.072 176.572 642.332C180.724 641.593 300.006 640.483 301.666 640.483C300.006 640.483 181.554 658.973 181.554 658.973C181.554 658.973 37.0868 651.577 19.3744 651.207V675.244C30.4447 677.832 67.8068 682.64 67.8068 682.64H19.3744V693.364C19.6512 694.473 20.2047 695.213 20.4814 695.952C21.5885 699.28 24.6328 712.963 24.6328 722.207C24.6328 731.452 19.3744 742.546 19.3744 744.025V761.775C20.2047 762.145 21.035 762.145 22.6955 762.515C26.0166 763.254 51.2014 760.296 72.5117 758.817C93.822 757.708 213.658 756.228 221.407 756.228C229.156 756.228 277.865 769.171 277.865 769.171C277.865 769.171 218.086 769.171 195.668 769.171C173.251 769.171 26.8468 772.13 20.7582 771.39C20.2047 771.39 19.6512 771.39 19.0977 771.76V807.26C28.7841 805.411 159.137 798.755 188.196 796.536C217.255 794.687 269.563 802.822 319.102 802.822C368.641 802.822 444.473 806.52 463.569 801.343C482.665 796.166 501.761 803.562 501.761 803.562C501.761 803.562 441.982 827.968 416.52 829.817C390.782 831.666 148.343 829.447 104.339 822.791C60.3344 816.135 45.1128 823.901 32.382 827.229C27.1236 828.708 22.6955 830.187 19.3744 831.666V907.474C20.7582 911.172 23.249 914.13 27.4004 914.13C38.4706 913.76 207.015 918.937 206.185 918.937C205.355 918.937 23.249 917.828 19.3744 925.963V955.547C19.9279 956.286 20.7582 956.656 21.5885 956.656C29.3377 957.766 207.846 975.146 207.846 975.146C207.846 975.146 32.382 964.422 19.3744 964.052V1054.65C21.035 1056.87 23.249 1059.83 26.5701 1063.16C36.2566 1073.14 83.582 1088.3 93.822 1089.04C104.062 1090.15 200.65 1097.92 200.65 1097.92C200.65 1097.92 52.862 1080.91 38.1939 1081.65C28.5074 1082.02 22.4187 1083.13 19.3744 1083.87V1108.27C19.3744 1108.27 20.2047 1110.12 40.4079 1109.75C60.6112 1109.38 84.4123 1111.23 97.6966 1109.75C110.981 1108.27 176.849 1107.16 195.668 1110.12C214.765 1113.08 336.261 1117.89 334.047 1119C331.556 1120.1 211.167 1115.3 179.34 1115.3C147.513 1115.67 47.6036 1114.93 37.9171 1114.19C28.5074 1113.45 22.142 1110.49 19.3744 1111.97V1124.17C19.3744 1130.09 21.8652 1134.9 25.1863 1137.49C33.2123 1138.59 42.8987 1137.85 44.2825 1137.12C46.4966 1136.01 54.7993 1133.79 58.3971 1133.79C61.995 1133.79 218.916 1136.01 231.924 1139.33H1250.67C1257.03 1139.33 1262.01 1132.31 1262.01 1124.17V1094.96C1262.01 1094.96 1169.85 1106.05 1174.56 1104.94C1179.26 1103.83 1259.24 1091.63 1259.24 1091.63L1262.01 1090.15V1070.55C1260.08 1067.59 1152.69 1077.95 1150.2 1077.95C1147.71 1077.95 1242.36 1069.44 1251.77 1066.48C1257.03 1064.64 1260.35 1060.94 1262.01 1057.98V1021C1257.58 1021 1245.96 1021.74 1228.8 1021.74C1207.77 1021.74 982.488 1022.85 937.653 1021.74C892.819 1020.63 542.168 1021.74 542.168 1021.74C522.795 1014.34 1133.04 1002.88 1153.8 1002.88C1166.81 1002.88 1234.06 988.089 1262.01 976.995V860.88C1255.09 856.442 1247.34 852.005 1244.02 851.265C1236.83 849.416 1224.37 859.77 1224.37 859.77C1224.37 859.77 1118.93 859.771 988.023 870.495C857.117 881.219 789.588 861.619 821.692 869.015C853.796 876.411 1093.74 853.854 1100.94 853.114C1108.14 852.375 1217.45 839.432 1233.51 839.432C1242.09 839.432 1253.43 841.651 1262.01 843.5V810.588C1261.18 809.848 1260.91 809.479 1260.91 809.479C1260.91 809.479 1200.3 818.724 1185.63 817.614C1170.96 816.505 1085.72 814.286 1085.72 814.286C1085.72 814.286 1200.57 810.588 1222.44 807.999C1232.95 806.89 1248.45 796.166 1262.01 785.442V658.233C1260.91 657.863 1260.08 656.384 1260.63 653.056C1261.18 650.837 1261.46 648.619 1262.01 647.139V636.785C1254.26 630.869 1191.72 614.228 1127.51 613.118C1055.83 612.009 654.531 633.827 609.143 625.691C563.755 617.556 498.44 603.504 384.417 606.092C346.778 606.832 317.165 609.051 294.194 611.639C255.448 617.556 200.65 623.103 200.65 623.103C200.65 623.103 247.145 616.816 294.194 611.639C347.608 603.134 423.439 593.519 483.496 593.519C587.279 593.519 723.167 611.639 755.271 602.394C787.651 593.519 1078.8 601.655 1119.21 598.696C1159.61 595.368 1254.82 611.639 1254.82 611.639L1261.74 608.681V566.894C1255.65 566.155 1246.79 566.155 1235.17 569.483C1211.37 575.769 1071.33 575.4 1037.56 577.249C1003.8 579.097 820.862 566.525 820.862 566.525C820.862 566.525 1149.65 567.634 1185.35 563.566C1209.98 560.978 1253.99 558.389 1262.01 557.28V520.3L1226.31 514.014L1262.01 506.618V488.868C1261.74 488.868 1261.74 488.498 1261.46 488.498C1259.8 487.389 1234.61 488.498 1229.63 489.238C1224.65 490.347 856.564 506.618 808.408 498.852C760.252 491.087 493.182 498.113 493.182 498.113C493.182 498.113 802.873 486.279 831.379 483.691C859.885 481.102 1161.55 482.951 1178.16 475.925C1195.04 468.899 1261.74 462.613 1261.74 462.613V363.878C1258.14 360.55 1253.71 357.961 1248.45 358.331C1234.61 359.071 1148.82 361.289 1138.3 361.289C1127.79 361.289 1224.65 353.154 1239.04 350.935C1249.84 349.456 1257.86 347.607 1261.74 345.388V292.508C1261.18 291.768 1260.35 291.398 1259.52 291.029C1255.09 290.289 1156.29 292.878 1107.31 295.466C1058.04 298.055 732.577 300.273 732.577 300.273C732.577 300.273 1238.76 283.633 1244.85 282.523C1250.94 281.784 1262.01 282.523 1262.01 282.523V191.554C1253.16 190.815 1175.39 185.638 1177.32 185.638C1179.54 185.638 1262.01 178.611 1262.01 178.611V159.012C1260.08 157.903 1256.48 156.424 1246.79 156.424C1234.34 156.424 979.444 156.424 978.06 156.424C979.997 156.424 1260.35 132.757 1262.01 130.169V112.419C1252.33 112.049 1189.5 111.679 1182.03 109.46C1173.73 106.872 1162.1 100.955 1162.1 100.955C1162.1 100.955 1238.49 108.351 1245.68 108.351C1252.6 108.351 1262.01 108.351 1262.01 108.351V96.1476C1261.74 96.1476 1261.18 96.1476 1260.91 96.1476C1256.75 95.7778 1196.14 94.6684 1190.89 93.559C1185.63 92.4497 1112.84 92.4497 1095.13 93.559C1077.42 94.6684 922.432 102.064 917.173 102.064C911.915 102.064 828.888 97.6268 828.888 97.6268C828.888 97.6268 921.325 97.257 953.705 92.8195C986.086 88.382 1173.17 83.9444 1189.5 86.9028C1205.55 89.8611 1258.69 88.7517 1261.18 88.7517C1261.74 88.7517 1262.01 88.7517 1262.57 88.7517V57.6891C1255.09 58.0589 1235.44 59.5381 1223.54 59.9079C1210.26 60.2777 1115.88 53.9912 1115.88 53.9912C1115.88 53.9912 1166.25 51.0328 1181.75 51.0328C1197.25 51.0328 1244.3 56.5797 1252.6 51.0328C1258.97 46.5953 1260.35 42.8974 1262.29 41.788V36.2411C1262.29 27.7359 1257.31 21.0796 1250.94 21.0796H30.7214C24.6328 21.0796 19.3744 27.7359 19.3744 36.2411V50.663C19.9279 49.9235 20.4814 49.1839 20.7582 49.1839C21.3117 48.4443 27.6771 46.9651 28.5074 46.9651C29.3377 46.9651 169.377 52.8818 171.591 53.6214C173.805 54.361 94.6523 57.3193 74.7258 56.9495ZM835.53 31.4338C835.53 31.4338 1116.44 39.5692 1131.38 37.3505C1146.33 35.1317 1139.69 25.5171 1139.69 25.5171C1144.67 25.5171 1165.98 27.3661 1163.49 31.4338C1161 35.8713 1159.34 40.6786 1090.98 45.4859C1022.34 50.2933 835.53 31.4338 835.53 31.4338ZM1189.78 654.905C1185.07 667.478 1131.66 678.202 1095.68 677.093C1059.43 676.353 1125.02 668.587 1142.73 660.822C1157.95 654.166 1134.15 636.785 1108.97 630.499C1100.11 629.02 1094.57 628.28 1095.68 628.28C1100.11 628.65 1104.54 629.389 1108.97 630.499C1135.81 635.306 1193.38 645.66 1189.78 654.905ZM794.847 697.801C794.847 697.801 1133.04 685.968 1163.21 678.942C1193.38 671.916 1241.26 654.905 1228.52 649.358C1215.79 643.811 1140.52 628.28 1140.52 628.28C1140.52 628.28 1218.01 632.718 1236 639.744C1253.99 647.139 1262.29 669.327 1222.71 679.681C1183.41 690.035 794.847 697.801 794.847 697.801ZM1030.37 1123.43C1037.56 1122.69 1088.49 1120.84 1093.47 1116.78C1098.45 1112.71 1032.86 1104.57 1034.24 1104.57C1073.82 1107.9 1112.01 1116.41 1103.15 1121.21C1094.3 1126.02 1023.17 1124.17 1030.37 1123.43ZM963.669 1111.23C966.159 1110.12 1091.81 1108.64 1082.67 1114.19C1073.82 1119.73 953.982 1115.3 963.669 1111.23ZM527.223 1089.04C527.223 1089.04 516.706 1098.29 531.098 1112.34C545.489 1126.39 658.406 1121.21 689.679 1118.63C720.953 1116.04 914.959 1112.34 914.959 1112.34C914.959 1112.34 791.526 1127.87 704.901 1133.05C618.276 1138.22 513.939 1117.52 512.001 1105.68C510.064 1093.48 527.223 1089.04 527.223 1089.04ZM751.396 1096.81C720.953 1107.16 502.038 1101.99 589.77 1078.69C623.811 1069.81 781.839 1086.45 751.396 1096.81ZM523.349 1058.35C561.264 1057.24 687.742 1046.89 756.378 1058.35C824.737 1069.81 941.805 1090.89 985.532 1086.82C1056.94 1080.17 906.38 1106.79 843.833 1093.11C808.685 1085.34 644.291 1058.35 609.973 1063.53C575.655 1068.7 436.724 1093.11 404.62 1103.46C372.239 1113.82 185.705 1065.01 185.705 1065.01C185.705 1065.01 313.29 1089.41 370.302 1086.82C427.314 1083.87 485.433 1059.46 523.349 1058.35ZM567.353 207.455C567.353 207.455 577.87 198.211 563.478 184.158C549.087 170.106 494.012 175.283 462.739 177.872C431.465 180.46 295.301 184.158 295.301 184.158C295.301 184.158 360.892 168.627 447.517 163.45C534.142 158.273 580.637 178.981 582.574 190.815C584.512 203.388 567.353 207.455 567.353 207.455ZM400.745 199.69C431.189 189.335 592.261 194.513 504.529 217.81C470.488 227.054 370.302 210.044 400.745 199.69ZM570.951 238.518C532.758 239.627 464.399 249.982 396.04 238.518C327.681 227.054 240.78 205.976 197.052 210.044C153.325 214.112 273.16 195.992 308.308 203.757C343.457 211.523 450.008 238.518 484.326 233.341C518.644 228.164 715.418 203.757 747.798 193.403C780.179 183.049 1024.56 231.862 1024.56 231.862C1024.56 231.862 839.128 207.455 782.116 210.044C725.104 212.632 609.143 237.039 570.951 238.518Z" fill="url(#paint0_linear_330_2272)"/>
<path d="M1255.65 26.9943C1261.73 31.8016 1261.46 41.786 1261.46 41.786C1261.46 41.786 1263.95 34.7599 1263.4 29.9526C1262.84 25.1453 1260.9 23.2963 1262.56 22.5567C1264.23 21.8171 1278.89 10.3536 1278.89 10.3536C1278.89 10.3536 1277.23 5.91604 1276.4 4.43687C1275.3 2.95769 1255.65 16.2703 1254.54 16.2703C1253.43 16.2703 27.953 16.64 27.953 16.64C27.953 16.64 18.2665 15.9005 14.3919 9.98377C10.5173 4.06707 9.41032 0.369141 9.41032 0.369141C9.41032 0.369141 0.277344 2.21811 0.277344 12.5723C0.277344 15.5307 19.3736 36.2391 19.3736 36.2391C19.3736 36.2391 22.1411 27.364 26.846 24.4057C31.5509 21.4474 1234.61 22.9265 1234.61 22.9265C1234.61 22.9265 1249.56 22.1869 1255.65 26.9943Z" fill="#F49D3D"/>
<path d="M1256.2 57.3189L1226.59 59.5377C1228.25 61.0169 1258.14 58.4283 1258.69 58.4283C1259.24 58.4283 1262.01 73.5898 1262.01 73.5898C1262.01 73.5898 1262.56 58.0585 1262.56 57.3189C1262.56 56.5794 1256.2 57.3189 1256.2 57.3189Z" fill="#F49D3D"/>
<path d="M1260.35 161.231C1261.18 162.34 1261.46 178.611 1261.46 178.611C1261.46 178.611 1262.84 165.299 1262.84 161.231C1262.84 157.163 1260.91 155.684 1257.03 155.314C1253.16 154.944 1189.5 155.314 1189.5 155.314L1142.45 156.424C1142.45 156.424 1185.9 158.273 1192.55 158.273C1198.91 158.273 1259.8 160.122 1260.35 161.231Z" fill="#F49D3D"/>
<path d="M1260.91 360.919C1257.58 358.7 1250.67 356.851 1250.67 356.851L1146.33 360.919C1146.33 360.919 1255.65 365.356 1256.75 367.205C1257.86 369.054 1261.74 435.617 1261.74 435.617C1261.74 435.617 1261.74 377.19 1262.57 373.862C1263.95 370.533 1264.5 363.138 1260.91 360.919Z" fill="#F49D3D"/>
<path d="M1263.12 647.139L1260.35 653.055C1260.35 653.055 1260.07 647.139 1260.35 643.441C1260.63 639.373 1252.32 634.196 1222.43 624.951C1192.54 615.706 1108.13 614.597 1084.06 615.706C1059.98 616.816 916.617 620.144 916.617 620.144C916.617 620.144 1095.68 612.008 1127.23 612.008C1158.78 612.008 1221.88 618.295 1241.81 625.691C1261.73 633.087 1262.84 634.935 1262.84 635.675C1262.84 636.415 1264.5 644.18 1263.12 647.139Z" fill="#F49D3D"/>
<path d="M1260.63 657.493C1260.63 657.493 1261.18 659.712 1261.46 660.452C1262.01 661.191 1262.01 677.093 1262.01 677.093C1262.01 677.093 1263.4 658.233 1262.84 657.493C1262.57 656.754 1261.18 658.973 1260.63 657.493Z" fill="#F49D3D"/>
<path d="M1262.01 834.254C1262.01 834.254 1263.39 815.024 1263.12 813.545C1263.12 812.066 1262.84 808.368 1262.01 808.738C1261.18 809.108 1243.74 813.915 1237.38 813.915C1231.01 813.915 1186.46 819.092 1174.28 817.613C1162.1 816.134 1158.23 816.873 1158.23 816.873C1158.23 816.873 1211.36 821.681 1228.8 819.462C1246.24 817.613 1260.07 812.066 1260.07 813.545C1260.35 815.024 1262.01 834.254 1262.01 834.254Z" fill="#F49D3D"/>
<path d="M1263.12 872.342C1263.12 872.342 1264.78 860.509 1263.12 859.399C1261.46 858.29 1252.88 855.332 1248.45 853.483C1244.02 851.634 1238.49 848.676 1231.29 853.483C1224.09 858.29 1176.49 861.249 1166.53 861.988C1156.29 862.728 1100.94 867.905 1100.94 867.905C1100.94 867.905 1217.73 865.316 1222.71 863.097C1227.42 860.879 1234.89 855.702 1237.66 855.702C1240.42 855.702 1256.75 861.618 1258.69 863.097C1260.63 864.946 1262.01 890.832 1262.01 890.832L1263.12 872.342Z" fill="#F49D3D"/>
<path d="M1262.01 1046.88C1262.01 1046.88 1265.05 1024.33 1263.39 1022.11C1262.01 1019.89 1256.75 1020.26 1246.51 1020.26C1236.27 1020.26 1097.06 1022.85 1097.06 1022.85C1097.06 1022.85 1253.43 1023.96 1256.47 1023.96C1259.52 1023.96 1262.01 1036.9 1262.01 1046.88Z" fill="#F49D3D"/>
<path d="M1263.12 1071.66C1261.18 1070.18 1226.31 1073.51 1226.31 1073.51C1226.31 1073.51 1259.52 1073.88 1260.07 1078.32C1260.63 1082.75 1262.01 1091.26 1262.01 1091.26L1263.12 1082.38C1263.12 1082.38 1265.05 1073.14 1263.12 1071.66Z" fill="#F49D3D"/>
<path d="M69.465 97.625C59.225 97.625 26.0142 95.776 24.3537 96.1458C22.6931 96.5156 17.9883 97.625 17.9883 99.8438C17.9883 102.432 20.2023 112.787 20.2023 112.787C20.2023 112.787 20.7558 100.953 22.4164 100.583C24.0769 100.214 72.5094 100.583 78.0445 100.214C83.5796 99.8438 191.515 93.1875 191.515 93.1875C191.515 93.1875 79.705 97.625 69.465 97.625Z" fill="#F49D3D"/>
<path d="M46.4936 116.854C45.6634 116.854 17.7109 116.854 17.7109 116.854L19.3715 172.323C19.3715 172.323 19.3715 120.552 20.7553 120.182C22.139 119.813 81.9185 116.115 81.9185 116.115L46.4936 116.854Z" fill="#F49D3D"/>
<path d="M30.4422 230.012C24.9071 229.642 17.9881 228.163 17.9881 231.491C17.7114 234.819 19.3719 296.575 19.3719 296.575C19.3719 296.575 21.3092 235.929 24.0768 236.298C26.8444 236.668 41.2357 234.819 45.9406 234.08C50.6454 233.34 58.1179 233.71 63.0995 234.449C67.8044 235.189 95.7568 242.585 95.7568 242.585C95.7568 242.585 67.8044 231.491 59.5017 229.272C51.199 227.054 38.4681 228.902 36.5308 229.272C34.5935 230.012 30.4422 230.012 30.4422 230.012Z" fill="#F49D3D"/>
<path d="M271.222 367.575C246.867 366.096 69.1892 356.851 69.1892 356.851C69.1892 356.851 32.9341 349.455 28.506 348.716C24.0778 347.976 17.7124 351.674 17.9892 355.002C18.266 358.33 19.373 431.549 19.373 431.549C19.373 431.549 21.587 362.398 24.0778 358.33C26.5687 354.262 33.4876 352.044 41.2368 355.742C48.7092 359.809 241.332 371.273 274.266 372.382C307.2 373.492 403.235 372.752 403.235 372.752L406.832 371.643C406.556 371.643 295.576 369.054 271.222 367.575Z" fill="#F49D3D"/>
<path d="M21.3097 771.759C17.7118 770.649 14.6675 772.498 17.1583 779.894C19.6491 787.29 19.6491 810.587 19.6491 807.259C19.6491 803.931 22.9702 779.894 27.3983 778.785C31.8264 778.045 98.5248 769.91 98.5248 769.91C98.5248 769.91 24.6307 772.498 21.3097 771.759Z" fill="#F49D3D"/>
<path d="M72.5084 921.524C72.5084 921.524 28.2274 924.482 24.6295 926.701C21.0317 928.92 19.3711 955.915 19.3711 955.915C19.3711 955.915 16.6036 929.659 17.7106 926.701C18.8176 923.743 26.2901 918.196 37.0836 920.045C48.1538 921.524 102.952 919.675 102.952 919.675L72.5084 921.524Z" fill="#F49D3D"/>
<path d="M74.7228 968.487C74.7228 968.487 22.6926 963.68 20.2017 962.94C17.7109 962.571 17.7109 968.118 17.7109 970.706C17.7109 973.295 19.6482 1056.87 19.6482 1054.65C19.6482 1052.43 22.4158 971.815 24.0763 969.967C25.7369 968.118 32.1023 967.008 37.6374 968.487C43.1726 969.967 195.666 974.034 195.666 974.034L74.7228 968.487Z" fill="#F49D3D"/>
<path d="M38.1935 1080.54C31.8281 1079.8 20.2043 1081.27 18.5438 1084.23C16.6065 1086.82 19.374 1109.75 19.374 1109.75C19.374 1109.75 20.4811 1089.04 23.5254 1087.93C26.5697 1086.82 44.8356 1083.86 45.3892 1083.86L81.9211 1087.56C82.1978 1087.56 44.2821 1081.27 38.1935 1080.54Z" fill="#F49D3D"/>
<path d="M690.231 1133.42C614.954 1136 517.535 1112.71 517.535 1112.71C517.535 1112.71 516.982 1130.46 602.776 1136.74C688.294 1143.03 807.853 1123.43 807.853 1123.43C807.853 1123.43 765.509 1130.83 690.231 1133.42Z" fill="#F49D3D"/>
<path d="M363.66 1100.13C363.66 1100.13 394.38 1102.35 432.296 1092.37C470.212 1082.38 657.022 1059.09 679.163 1058.72C701.303 1058.35 797.615 1082.75 797.615 1082.75C797.615 1082.75 693.831 1065.37 679.44 1065.37C665.048 1065.37 422.056 1100.13 415.967 1102.35C409.879 1104.57 392.72 1111.6 383.31 1107.53C373.9 1103.46 363.66 1100.13 363.66 1100.13Z" fill="#F49D3D"/>
<path d="M19.3711 875.67V831.664C19.3711 831.664 40.4046 821.31 72.5084 820.201C104.335 819.091 345.944 830.185 345.944 830.185C345.944 830.185 90.4976 830.185 77.7668 830.185C65.036 830.185 36.53 834.253 30.7181 836.841C24.6295 839.8 19.3711 875.67 19.3711 875.67Z" fill="#F49D3D"/>
<path d="M29.3382 588.342C27.1241 590.93 24.6333 598.326 23.2495 601.284C21.8657 603.873 19.3749 621.993 19.3749 619.774C19.3749 617.186 18.8214 605.722 19.3749 600.915C19.9284 596.107 24.3565 594.258 24.0798 590.93C23.803 587.232 23.803 584.274 26.2938 584.274C28.7846 584.274 79.1544 584.274 79.1544 584.274C79.1544 584.274 31.5522 585.753 29.3382 588.342Z" fill="#F49D3D"/>
<path d="M106.552 441.532C106.552 441.532 15.2224 445.23 15.7759 452.626C16.3295 460.022 19.3738 562.085 19.3738 562.085C19.3738 562.085 19.3738 464.459 24.0786 458.913C28.5068 453.735 269.008 434.876 269.008 434.876L106.552 441.532Z" fill="#F49D3D"/>
<path d="M421.223 602.023C421.223 602.023 624.085 618.664 691.614 622.362C759.143 626.06 1122.25 612.377 1122.25 612.377C1122.25 612.377 788.202 634.195 733.128 636.044C678.053 637.153 421.223 602.023 421.223 602.023Z" fill="#F49D3D"/>
<path d="M953.703 219.657C953.703 219.657 803.977 201.538 748.072 214.111C692.168 226.684 571.778 242.215 517.257 242.954C462.459 244.064 421.223 242.954 421.223 242.954C421.223 242.954 502.312 253.678 572.609 249.241C642.905 244.803 756.098 220.027 789.586 220.027C823.073 220.027 953.703 219.657 953.703 219.657Z" fill="#F49D3D"/>
<path d="M397.701 204.865C397.701 204.865 469.658 224.464 491.522 219.656C513.386 215.219 530.268 206.344 530.268 206.344C530.268 206.344 518.09 228.162 457.481 223.354C397.148 218.547 393.827 205.974 397.701 204.865Z" fill="#F49D3D"/>
<path d="M549.362 176.759C530.819 171.212 493.18 167.884 468.825 171.952C444.471 176.02 333.491 181.936 333.491 181.936L298.066 184.525C298.066 184.525 304.155 184.525 322.698 186.004C341.24 187.483 463.29 177.129 484.877 176.759C506.741 176.39 560.985 183.416 564.86 188.962C568.735 194.879 567.351 207.822 567.351 207.822C567.351 207.822 572.886 201.905 572.886 195.619C572.886 188.963 568.181 182.306 549.362 176.759Z" fill="#F49D3D"/>
<path d="M22.6951 833.882L19.374 831.664L0.55457 825.007C0.55457 825.007 1.38484 828.705 0.55457 829.445C-0.2757 830.184 15.7762 836.841 15.7762 836.841L20.4811 853.481L22.6951 833.882Z" fill="#F49D3D"/>
<path d="M25.1861 920.785L17.9905 926.332C17.9905 926.332 -1.65927 919.675 0.831545 920.785C3.32236 921.894 16.6067 931.139 17.7137 933.358C18.8207 935.577 25.1861 920.785 25.1861 920.785Z" fill="#F49D3D"/>
<path d="M25.1837 1082.01C25.1837 1082.01 19.0951 1084.23 16.3275 1082.01C13.2832 1079.8 4.98047 1082.01 4.98047 1082.01C4.98047 1082.01 18.2648 1094.96 18.5415 1097.55C18.5415 1100.5 25.1837 1082.01 25.1837 1082.01Z" fill="#F49D3D"/>
<path d="M19.3742 450.038L15.4996 452.627L6.08984 447.45C6.08984 447.45 15.2228 460.392 15.7763 461.502C16.3298 462.611 17.9904 482.21 17.9904 482.21L19.3742 450.038Z" fill="#F49D3D"/>
<path d="M19.373 230.011L0 231.86L17.9892 238.147L19.373 230.011Z" fill="#F49D3D"/>
<path d="M26.8454 347.236L0 348.715L19.373 355.741L26.8454 347.236Z" fill="#F49D3D"/>
<path d="M0 94.2964L18.2659 103.171L22.4173 96.5151L0 94.2964Z" fill="#F49D3D"/>
<defs>
<linearGradient id="paint0_linear_330_2272" x1="653.832" y1="1196.72" x2="611.012" y2="67.0664" gradientUnits="userSpaceOnUse">
<stop stop-color="#86460E"/>
<stop offset="0.9758" stop-color="#B66C13"/>
</linearGradient>
</defs>
</svg>
