<svg width="364" height="224" viewBox="0 0 364 224" fill="none" xmlns="http://www.w3.org/2000/svg">
<path d="M0 220.937C0 222.647 1.49535 224 3.30551 224H360.615C362.425 224 363.921 222.647 363.921 220.937V3.06264C363.921 1.35326 362.425 0 360.615 0H3.30551C1.49535 0 0 1.35326 0 3.06264V220.937Z" fill="#6D310C"/>
<path d="M3.30551 0H360.615C362.111 0 363.291 0.85469 363.763 2.0655L357.703 3.98855H10.3887C10.3887 3.98855 7.55545 3.70366 6.68972 4.62957C5.90269 5.69793 5.50918 6.97997 5.50918 6.97997L0 2.84897C0.0787026 1.28204 1.57405 0 3.30551 0Z" fill="#D17D22"/>
<path d="M360.774 224H3.38541C1.89006 224 0.70952 223.145 0.237305 221.935L6.2974 220.012H353.612C353.612 220.012 356.445 220.296 357.311 219.37C358.177 218.373 358.492 217.091 358.492 217.091L364.001 221.222C363.922 222.718 362.505 224 360.774 224Z" fill="#542409"/>
<path d="M26.9163 46.0108C26.9163 46.0108 14.56 43.0906 11.7267 42.8769C8.57858 42.592 5.50918 43.3043 5.50918 43.3043L0 43.9453L5.74529 41.2388L17.3146 42.3784L56.0362 45.1561L83.6609 46.723L56.4298 46.5094L26.9163 46.0108Z" fill="#542409"/>
<path d="M53.9909 61.5382C53.7548 61.6094 31.482 61.3957 29.4357 61.3957C27.3895 61.3245 20.3062 60.6122 19.2831 60.541C18.4174 60.4698 5.51015 58.9029 5.51015 58.9029L1.73242 59.1165L5.51015 58.4043C5.51015 58.4043 54.227 61.4669 53.9909 61.5382Z" fill="#542409"/>
<path d="M5.50918 63.1758L18.8886 64.2441L102.943 68.2327C102.943 68.2327 25.657 67.378 22.0367 66.9507C18.3377 66.5945 14.4813 65.7399 11.9628 65.7399C9.44431 65.7399 3.85643 66.096 3.38421 66.2384C2.9907 66.3096 0 65.6686 0 65.5262C0 65.3837 5.50918 63.1758 5.50918 63.1758Z" fill="#542409"/>
<path d="M5.50849 83.9022L85.1555 82.6914C85.1555 82.6914 15.425 84.6145 13.6936 84.8281C11.9621 85.0418 4.48535 84.8281 4.48535 84.8281L5.50849 83.9022Z" fill="#542409"/>
<path d="M18.5741 112.534C18.5741 112.534 7.94928 111.323 7.47707 111.323C7.00485 111.323 4.87988 110.753 4.87988 110.753L5.5095 108.545C8.18539 107.049 18.5741 112.534 18.5741 112.534Z" fill="#542409"/>
<path d="M0.550341 122.791C0.707746 122.72 5.58731 119.799 5.58731 119.799L84.8408 123.147C84.8408 123.147 54.0681 124.927 53.9107 124.999C53.7533 125.07 19.1242 124.002 17.7075 124.073C16.3696 124.144 6.61044 122.577 6.13822 122.577C5.66601 122.506 0.550341 123.361 0.078125 123.574C0.156828 123.432 0.392935 122.862 0.550341 122.791Z" fill="#542409"/>
<path d="M13.3799 147.79C11.8845 147.861 4.3291 147.79 4.3291 147.79L5.50964 146.722C5.50964 146.722 58.0043 143.445 58.5552 143.445C59.1061 143.445 80.1197 148.146 80.1197 148.146C80.1197 148.146 56.4302 146.722 54.5414 146.722C52.7312 146.722 14.8752 147.79 13.3799 147.79Z" fill="#542409"/>
<path d="M60.13 152.633C62.2549 152.633 119.55 154.699 119.55 154.699L129.782 154.628C129.782 154.628 118.134 157.12 116.245 157.334C114.356 157.548 68.7873 155.91 66.2688 156.408C63.829 156.907 20.8574 156.693 19.7555 156.693C18.6537 156.622 5.51038 158.972 5.51038 158.972H0.237305L5.58908 155.553C5.51038 155.482 58.005 152.633 60.13 152.633Z" fill="#542409"/>
<path d="M19.0456 208.402L5.50879 205.98V203.131C5.50879 202.633 19.0456 208.402 19.0456 208.402Z" fill="#542409"/>
<path d="M15.8987 218.231C17.1579 218.16 54.0694 219.014 55.0926 219.085C56.1157 219.085 18.9681 219.085 18.3385 219.228C17.6301 219.37 12.6719 219.228 12.6719 219.228C12.908 218.801 14.6394 218.302 15.8987 218.231Z" fill="#542409"/>
<path d="M363.764 190.809C363.764 190.809 357.625 191.949 357.153 192.447C356.759 192.946 335.903 193.231 334.014 193.302C332.125 193.373 325.278 193.302 325.278 193.302C325.278 193.302 358.333 188.388 358.806 188.245C359.357 188.103 363.764 190.809 363.764 190.809Z" fill="#542409"/>
<path d="M358.569 162.605L363.763 164.314L358.175 163.958C358.175 163.958 351.8 163.032 349.912 163.032C348.023 163.032 269.478 167.092 269.478 167.092L351.171 160.682L358.569 162.605Z" fill="#542409"/>
<path d="M363.764 152.633V154.271L358.884 155.268C358.884 155.268 339.602 155.767 338.579 155.838C337.556 155.909 359.199 151.564 359.199 151.564L363.764 152.633Z" fill="#542409"/>
<path d="M358.333 120.725C358.019 120.582 331.575 116.665 330.315 116.807C329.056 117.021 295.607 115.312 295.607 115.312C295.607 115.312 325.2 114.386 326.616 114.386C328.033 114.386 358.806 116.807 358.806 116.807C358.806 116.807 364.236 119.158 363.685 119.229C363.134 119.371 358.648 120.867 358.333 120.725Z" fill="#542409"/>
<path d="M358.884 97.5771L362.583 98.8592H348.102L358.884 97.5771Z" fill="#542409"/>
<path d="M328.583 90.8822C329.606 90.9534 358.411 89.1016 358.411 89.1016L363.842 92.0218L353.61 92.3067C353.61 92.3067 316.778 93.5887 315.361 93.7311C314.023 93.8736 258.853 92.9477 258.853 92.9477C258.853 92.9477 327.56 90.8109 328.583 90.8822Z" fill="#542409"/>
<path d="M331.259 68.7312L358.49 66.3096L363.763 68.66H358.096L331.259 68.7312Z" fill="#542409"/>
<path d="M358.569 27.5639L324.727 27.6351L358.883 24.2876L363.763 25.997L358.883 27.5639H358.569Z" fill="#542409"/>
<path d="M358.884 10.0427L352.745 10.3276V10.114L358.648 8.19092C358.648 8.19092 362.74 8.47581 363.055 8.47581C363.37 8.40459 358.884 10.0427 358.884 10.0427Z" fill="#542409"/>
<path d="M21.2509 10.9688C15.5843 10.8976 11.0195 10.4702 8.65845 10.3278C7.2418 10.2566 6.21867 10.5415 5.58905 10.8264V17.5214C6.29737 17.379 8.02883 16.9516 9.36677 16.5243C11.0982 15.9545 20.5425 16.0257 22.8249 16.0257C25.1073 16.0257 62.8845 17.5214 61.704 17.5214C60.5235 17.5214 21.6444 19.1596 19.6768 19.1596C17.7092 19.0884 8.57974 18.7322 7.08439 18.8035C6.37607 18.8747 5.90386 19.0171 5.51034 19.2308V21.7236C11.3343 21.7949 51.0791 22.151 51.7875 22.151C52.4958 22.151 11.3343 22.5783 5.51034 22.7208V41.2391C5.51034 41.2391 16.3713 42.3786 16.9222 42.3786C17.4731 42.3786 27.0749 45.5837 28.4128 45.5837C29.672 45.5837 81.3009 46.296 81.3009 46.296C81.3009 46.296 30.8526 47.7205 26.8387 46.7233C22.9036 45.7262 16.0565 43.9456 12.8297 44.4442C10.4686 44.8003 7.08439 44.8003 5.51034 44.8715V58.4041C6.69088 58.6178 8.97326 58.689 10.7047 59.0451C13.1445 59.5437 53.1254 61.5379 53.5976 61.6092C54.0698 61.6804 28.098 62.0365 25.186 62.0365C22.1953 62.0365 9.60288 60.3984 7.95012 60.0422C7.0844 59.8998 6.21867 59.7573 5.58905 59.6861V63.2473C6.53348 63.6747 9.05196 63.7459 10.8621 63.9596C13.1445 64.1732 22.7462 63.9596 27.1536 65.1704C31.5609 66.31 140.092 69.7999 140.092 69.7999C140.092 69.7999 129.152 71.3669 114.828 71.5806C100.504 71.7942 58.1624 70.441 51.3152 70.0848C44.4681 69.7287 9.52418 67.4496 7.47791 67.4496C5.74645 67.4496 5.58905 68.4467 5.51034 68.8028V83.8311C6.13996 84.3297 92.4767 82.4066 92.4767 82.4066C92.4767 82.4066 10.8621 86.1815 7.47791 86.4664C6.53348 86.5376 5.98256 86.6089 5.58905 86.7513V108.403C5.74645 108.76 5.82515 109.044 5.90386 109.258C6.21867 109.97 9.36677 110.255 11.0982 110.398C12.8297 110.54 18.0241 112.392 18.0241 112.392H7.2418L6.61218 114.457L5.51034 116.096V119.799C6.06126 120.298 6.61218 120.725 7.08439 120.939C8.26493 121.366 48.9542 123.859 50.2134 123.717C51.394 123.574 85.3148 123.361 85.787 123.361C85.3148 123.361 51.6301 126.922 51.6301 126.922C51.6301 126.922 10.5473 125.497 5.51034 125.426V130.056C8.65845 130.554 19.2833 131.48 19.2833 131.48H5.51034V133.546C5.58905 133.759 5.74645 133.902 5.82515 134.044C6.13996 134.685 7.00569 137.32 7.00569 139.101C7.00569 140.882 5.51034 143.018 5.51034 143.303V146.722C5.74645 146.793 5.98256 146.793 6.45477 146.864C7.39921 147.007 14.5611 146.437 20.6212 146.152C26.6813 145.939 60.7596 145.654 62.9632 145.654C65.1669 145.654 79.0186 148.147 79.0186 148.147C79.0186 148.147 62.0188 148.147 55.6439 148.147C49.269 148.147 7.63531 148.716 5.90386 148.574C5.74645 148.574 5.58905 148.574 5.43164 148.645V155.483C8.18623 155.126 45.2551 153.844 53.5189 153.417C61.7827 153.061 76.6575 154.628 90.7453 154.628C104.833 154.628 126.398 155.34 131.828 154.343C137.258 153.346 142.689 154.77 142.689 154.77C142.689 154.77 125.689 159.471 118.449 159.827C111.129 160.183 42.1858 159.756 29.672 158.474C17.1583 157.192 12.8297 158.688 9.20936 159.329C7.71402 159.614 6.45477 159.898 5.51034 160.183V174.784C5.90386 175.497 6.61218 176.066 7.79272 176.066C10.9408 175.995 58.8707 176.992 58.6346 176.992C58.3985 176.992 6.61218 176.779 5.51034 178.346V184.043C5.66775 184.186 5.90386 184.257 6.13996 184.257C8.34364 184.471 59.1068 187.818 59.1068 187.818C59.1068 187.818 9.20936 185.753 5.51034 185.682V203.132C5.98256 203.559 6.61218 204.129 7.55661 204.77C10.3112 206.693 23.7693 209.613 26.6813 209.755C29.5933 209.969 57.0605 211.465 57.0605 211.465C57.0605 211.465 15.0334 208.188 10.8621 208.331C8.10753 208.402 6.37607 208.616 5.51034 208.758V213.459C5.51034 213.459 5.74645 213.815 11.4917 213.744C17.237 213.673 24.0055 214.029 27.7832 213.744C31.5609 213.459 50.2921 213.245 55.6439 213.815C61.0744 214.385 95.6248 215.311 94.9952 215.525C94.2869 215.738 60.0512 214.812 51.0004 214.812C41.9496 214.884 13.538 214.741 10.7834 214.599C8.10753 214.456 6.29737 213.886 5.51034 214.171V216.522C5.51034 217.661 6.21867 218.587 7.1631 219.086C9.44547 219.299 12.2001 219.157 12.5936 219.015C13.2232 218.801 15.5843 218.374 16.6074 218.374C17.6305 218.374 62.2549 218.801 65.9539 219.442H355.658C357.468 219.442 358.885 218.089 358.885 216.522V210.895C358.885 210.895 332.677 213.032 334.015 212.818C335.353 212.604 358.098 210.254 358.098 210.254L358.885 209.969V206.194C358.334 205.624 327.797 207.619 327.089 207.619C326.381 207.619 353.297 205.981 355.973 205.411C357.468 205.055 358.413 204.342 358.885 203.773V196.65C357.626 196.65 354.32 196.793 349.441 196.793C343.459 196.793 279.395 197.006 266.646 196.793C253.896 196.579 154.18 196.793 154.18 196.793C148.67 195.368 322.21 193.16 328.112 193.16C331.811 193.16 350.936 190.311 358.885 188.174V165.81C356.917 164.955 354.714 164.101 353.769 163.958C351.723 163.602 348.181 165.596 348.181 165.596C348.181 165.596 318.196 165.596 280.969 167.662C243.743 169.727 224.54 165.953 233.669 167.377C242.799 168.802 311.034 164.457 313.08 164.314C315.126 164.172 346.214 161.679 350.779 161.679C353.218 161.679 356.445 162.106 358.885 162.463V156.124C358.649 155.981 358.57 155.91 358.57 155.91C358.57 155.91 341.334 157.691 337.163 157.477C332.992 157.263 308.751 156.836 308.751 156.836C308.751 156.836 341.413 156.124 347.631 155.625C350.621 155.411 355.029 153.346 358.885 151.28V126.779C358.57 126.708 358.334 126.423 358.491 125.782C358.649 125.355 358.728 124.927 358.885 124.643V122.648C356.681 121.509 338.895 118.304 320.636 118.09C300.252 117.876 186.133 122.078 173.226 120.512C160.318 118.945 141.745 116.238 109.319 116.737C98.6155 116.879 90.1943 117.306 83.662 117.805C72.6437 118.945 57.0605 120.013 57.0605 120.013C57.0605 120.013 70.2826 118.802 83.662 117.805C98.8516 116.167 120.416 114.315 137.495 114.315C167.008 114.315 205.651 117.805 214.781 116.024C223.989 114.315 306.784 115.882 318.274 115.312C329.765 114.671 356.839 117.805 356.839 117.805L358.806 117.235V109.187C357.075 109.044 354.556 109.044 351.251 109.685C344.482 110.896 304.659 110.825 295.057 111.181C285.455 111.537 233.433 109.116 233.433 109.116C233.433 109.116 326.932 109.329 337.084 108.546C344.089 108.047 356.603 107.549 358.885 107.335V100.213L348.732 99.0019L358.885 97.5774V94.1586C358.806 94.1586 358.806 94.0874 358.728 94.0874C358.255 93.8737 351.093 94.0874 349.677 94.2298C348.26 94.4435 243.586 97.5774 229.891 96.0817C216.197 94.5859 140.249 95.9392 140.249 95.9392C140.249 95.9392 228.317 93.66 236.424 93.1615C244.53 92.6629 330.316 93.019 335.038 91.6658C339.839 90.3125 358.806 89.1017 358.806 89.1017V70.0848C357.783 69.4438 356.524 68.9453 355.029 69.0165C351.093 69.1589 326.696 69.5863 323.705 69.5863C320.714 69.5863 348.26 68.0193 352.353 67.592C355.422 67.3071 357.704 66.951 358.806 66.5236V56.3386C358.649 56.1961 358.413 56.1249 358.177 56.0537C356.917 55.9112 328.821 56.4098 314.89 56.9084C300.881 57.4069 208.327 57.8343 208.327 57.8343C208.327 57.8343 352.274 54.6292 354.005 54.4155C355.737 54.2731 358.885 54.4155 358.885 54.4155V36.8944C356.367 36.7519 334.251 35.7548 334.802 35.7548C335.432 35.7548 358.885 34.4015 358.885 34.4015V30.6267C358.334 30.413 357.311 30.1281 354.556 30.1281C351.015 30.1281 278.53 30.1281 278.136 30.1281C278.687 30.1281 358.413 25.5698 358.885 25.0712V21.6524C356.13 21.5812 338.265 21.51 336.14 21.0826C333.779 20.5841 330.473 19.4445 330.473 19.4445C330.473 19.4445 352.195 20.869 354.242 20.869C356.209 20.869 358.885 20.869 358.885 20.869V18.5186C358.806 18.5186 358.649 18.5186 358.57 18.5186C357.39 18.4473 340.154 18.2337 338.658 18.02C337.163 17.8063 316.464 17.8063 311.427 18.02C306.39 18.2337 262.317 19.6581 260.822 19.6581C259.326 19.6581 235.715 18.8035 235.715 18.8035C235.715 18.8035 262.002 18.7322 271.21 17.8775C280.419 17.0229 333.621 16.1682 338.265 16.738C342.83 17.3077 357.941 17.0941 358.649 17.0941C358.806 17.0941 358.885 17.0941 359.042 17.0941V11.1112C356.917 11.1825 351.33 11.4674 347.945 11.5386C344.168 11.6098 317.33 10.399 317.33 10.399C317.33 10.399 331.654 9.82921 336.061 9.82921C340.469 9.82921 353.848 10.8976 356.209 9.82921C358.019 8.97453 358.413 8.26228 358.964 8.04861V6.98025C358.964 5.34209 357.547 4.06006 355.737 4.06006H8.73715C7.00569 4.06006 5.51034 5.34209 5.51034 6.98025V9.75799C5.66775 9.61554 5.82515 9.47309 5.90386 9.47309C6.06126 9.33065 7.87142 9.04575 8.10753 9.04575C8.34364 9.04575 48.1671 10.1853 48.7968 10.3278C49.4264 10.4702 26.9174 11.04 21.2509 10.9688ZM237.604 6.05433C237.604 6.05433 317.487 7.62127 321.737 7.19392C325.987 6.76658 324.098 4.91475 324.098 4.91475C325.515 4.91475 331.575 5.27087 330.867 6.05433C330.159 6.90902 329.686 7.83494 310.247 8.76085C290.729 9.68677 237.604 6.05433 237.604 6.05433ZM338.344 126.138C337.006 128.56 321.816 130.625 311.585 130.412C301.275 130.269 319.927 128.774 324.964 127.278C329.293 125.996 322.524 122.648 315.362 121.437C312.844 121.153 311.27 121.01 311.585 121.01C312.844 121.081 314.103 121.224 315.362 121.437C322.997 122.363 339.367 124.358 338.344 126.138ZM226.035 134.4C226.035 134.4 322.21 132.121 330.788 130.768C339.367 129.415 352.982 126.138 349.362 125.07C345.742 124.002 324.335 121.01 324.335 121.01C324.335 121.01 346.371 121.865 351.487 123.218C356.603 124.643 358.964 128.916 347.709 130.91C336.533 132.905 226.035 134.4 226.035 134.4ZM293.011 216.379C295.057 216.237 309.538 215.881 310.955 215.097C312.372 214.314 293.719 212.747 294.113 212.747C305.367 213.388 316.228 215.026 313.71 215.952C311.191 216.878 290.965 216.522 293.011 216.379ZM274.044 214.029C274.752 213.815 310.483 213.53 307.886 214.599C305.367 215.667 271.289 214.812 274.044 214.029ZM149.93 209.755C149.93 209.755 146.939 211.536 151.031 214.242C155.124 216.949 187.235 215.952 196.128 215.453C205.021 214.955 260.192 214.242 260.192 214.242C260.192 214.242 225.091 217.234 200.457 218.231C175.823 219.228 146.152 215.24 145.601 212.96C145.05 210.61 149.93 209.755 149.93 209.755ZM213.679 211.251C205.021 213.245 142.768 212.248 167.716 207.761C177.397 206.052 222.336 209.257 213.679 211.251ZM148.828 203.844C159.61 203.63 195.577 201.636 215.095 203.844C234.535 206.052 267.826 210.112 280.261 209.328C300.566 208.046 257.752 213.174 239.965 210.539C229.97 209.043 183.221 203.844 173.462 204.841C163.703 205.838 124.194 210.539 115.064 212.533C105.856 214.527 52.8106 205.126 52.8106 205.126C52.8106 205.126 89.0925 209.827 105.305 209.328C121.518 208.758 138.046 204.057 148.828 203.844ZM161.341 39.957C161.341 39.957 164.332 38.1764 160.24 35.4699C156.147 32.7634 140.485 33.7605 131.592 34.2591C122.699 34.7577 83.9768 35.4699 83.9768 35.4699C83.9768 35.4699 102.629 32.4785 127.263 31.4814C151.897 30.4842 165.119 34.4728 165.67 36.7519C166.221 39.1736 161.341 39.957 161.341 39.957ZM113.963 38.4613C122.62 36.467 168.425 37.4642 143.476 41.9513C133.796 43.7319 105.305 40.4556 113.963 38.4613ZM162.365 45.9399C151.504 46.1535 132.064 48.1478 112.625 45.9399C93.185 43.7319 68.4724 39.6721 56.0374 40.4556C43.6024 41.2391 77.6806 37.7491 87.6758 39.2448C97.6711 40.7405 127.972 45.9399 137.731 44.9427C147.49 43.9456 203.447 39.2448 212.656 37.2505C221.864 35.2562 291.358 44.6578 291.358 44.6578C291.358 44.6578 238.627 39.957 222.415 40.4556C206.202 40.9542 173.226 45.655 162.365 45.9399Z" fill="url(#paint0_linear_839_2)"/>
<path d="M357.073 5.19943C358.805 6.12534 358.726 8.0484 358.726 8.0484C358.726 8.0484 359.434 6.69514 359.277 5.76922C359.119 4.84331 358.568 4.48719 359.041 4.34474C359.513 4.20229 363.684 1.99434 363.684 1.99434C363.684 1.99434 363.212 1.13965 362.976 0.854755C362.661 0.569858 357.073 3.13393 356.758 3.13393C356.443 3.13393 7.94838 3.20515 7.94838 3.20515C7.94838 3.20515 5.19379 3.0627 4.09196 1.92312C2.99012 0.783531 2.67531 0.0712891 2.67531 0.0712891C2.67531 0.0712891 0.078125 0.42741 0.078125 2.42169C0.078125 2.99148 5.5086 6.98003 5.5086 6.98003C5.5086 6.98003 6.29563 5.27065 7.63357 4.70086C8.97152 4.13107 351.092 4.41596 351.092 4.41596C351.092 4.41596 355.342 4.27352 357.073 5.19943Z" fill="#F49D3D"/>
<path d="M357.232 11.0399L348.811 11.4672C349.283 11.7521 357.783 11.2535 357.94 11.2535C358.097 11.2535 358.884 14.1737 358.884 14.1737C358.884 14.1737 359.042 11.1823 359.042 11.0399C359.042 10.8974 357.232 11.0399 357.232 11.0399Z" fill="#F49D3D"/>
<path d="M358.412 31.0541C358.648 31.2677 358.727 34.4016 358.727 34.4016C358.727 34.4016 359.12 31.8375 359.12 31.0541C359.12 30.2706 358.569 29.9857 357.468 29.9145C356.366 29.8432 338.264 29.9145 338.264 29.9145L324.885 30.1281C324.885 30.1281 337.241 30.4843 339.13 30.4843C340.94 30.4843 358.255 30.8404 358.412 31.0541Z" fill="#F49D3D"/>
<path d="M358.569 69.5149C357.625 69.0876 355.657 68.7314 355.657 68.7314L325.986 69.5149C325.986 69.5149 357.074 70.3696 357.389 70.7257C357.703 71.0818 358.805 83.9022 358.805 83.9022C358.805 83.9022 358.805 72.6488 359.041 72.0078C359.435 71.3667 359.592 69.9423 358.569 69.5149Z" fill="#F49D3D"/>
<path d="M359.198 124.642L358.411 125.782C358.411 125.782 358.332 124.642 358.411 123.93C358.489 123.147 356.128 122.149 347.628 120.369C339.129 118.588 315.124 118.375 308.277 118.588C301.43 118.802 260.662 119.443 260.662 119.443C260.662 119.443 311.583 117.876 320.555 117.876C329.527 117.876 347.471 119.087 353.138 120.511C358.804 121.936 359.119 122.292 359.119 122.434C359.119 122.577 359.591 124.072 359.198 124.642Z" fill="#F49D3D"/>
<path d="M358.49 126.637C358.49 126.637 358.648 127.064 358.726 127.207C358.884 127.349 358.884 130.412 358.884 130.412C358.884 130.412 359.277 126.779 359.12 126.637C359.041 126.494 358.648 126.922 358.49 126.637Z" fill="#F49D3D"/>
<path d="M358.884 160.682C358.884 160.682 359.277 156.978 359.198 156.693C359.198 156.408 359.12 155.696 358.884 155.767C358.647 155.838 353.689 156.764 351.879 156.764C350.069 156.764 337.398 157.761 333.935 157.477C330.472 157.192 329.37 157.334 329.37 157.334C329.37 157.334 344.481 158.26 349.439 157.833C354.398 157.477 358.333 156.408 358.333 156.693C358.411 156.978 358.884 160.682 358.884 160.682Z" fill="#F49D3D"/>
<path d="M359.198 168.018C359.198 168.018 359.67 165.739 359.198 165.525C358.726 165.311 356.286 164.741 355.027 164.385C353.767 164.029 352.193 163.459 350.147 164.385C348.101 165.311 334.564 165.881 331.731 166.024C328.819 166.166 313.078 167.163 313.078 167.163C313.078 167.163 346.291 166.665 347.707 166.237C349.045 165.81 351.17 164.813 351.957 164.813C352.744 164.813 357.388 165.952 357.939 166.237C358.49 166.593 358.883 171.579 358.883 171.579L359.198 168.018Z" fill="#F49D3D"/>
<path d="M358.883 201.636C358.883 201.636 359.749 197.291 359.277 196.864C358.883 196.437 357.388 196.508 354.476 196.508C351.564 196.508 311.977 197.006 311.977 197.006C311.977 197.006 356.444 197.22 357.309 197.22C358.175 197.22 358.883 199.713 358.883 201.636Z" fill="#F49D3D"/>
<path d="M359.199 206.407C358.648 206.123 348.731 206.764 348.731 206.764C348.731 206.764 358.176 206.835 358.333 207.69C358.491 208.544 358.884 210.182 358.884 210.182L359.199 208.473C359.199 208.473 359.75 206.692 359.199 206.407Z" fill="#F49D3D"/>
<path d="M19.7549 18.8029C16.8429 18.8029 7.39859 18.4468 6.92637 18.518C6.45416 18.5893 5.11621 18.8029 5.11621 19.2303C5.11621 19.7288 5.74583 21.7231 5.74583 21.7231C5.74583 21.7231 5.90324 19.4439 6.37545 19.3727C6.84767 19.3015 20.6206 19.3727 22.1947 19.3015C23.7687 19.2303 54.4627 17.9482 54.4627 17.9482C54.4627 17.9482 22.6669 18.8029 19.7549 18.8029Z" fill="#F49D3D"/>
<path d="M13.2212 22.5067C12.9851 22.5067 5.03613 22.5067 5.03613 22.5067L5.50835 33.1903C5.50835 33.1903 5.50835 23.2189 5.90186 23.1477C6.29537 23.0765 23.2951 22.3643 23.2951 22.3643L13.2212 22.5067Z" fill="#F49D3D"/>
<path d="M8.65691 44.3014C7.08286 44.2301 5.11529 43.9452 5.11529 44.5863C5.03659 45.2273 5.50881 57.1217 5.50881 57.1217C5.50881 57.1217 6.05972 45.441 6.84675 45.5122C7.63378 45.5834 11.7263 45.2273 13.0643 45.0848C14.4022 44.9424 16.5272 45.0136 17.9438 45.1561C19.2818 45.2985 27.2307 46.723 27.2307 46.723C27.2307 46.723 19.2818 44.5863 16.9207 44.1589C14.5596 43.7316 10.9393 44.0877 10.3884 44.1589C9.83745 44.3014 8.65691 44.3014 8.65691 44.3014Z" fill="#F49D3D"/>
<path d="M77.1277 70.7968C70.2018 70.5119 19.6748 68.7313 19.6748 68.7313C19.6748 68.7313 9.36473 67.3068 8.10549 67.1644C6.84624 67.0219 5.03608 67.7342 5.11479 68.3752C5.19349 69.0162 5.5083 83.1186 5.5083 83.1186C5.5083 83.1186 6.13792 69.7997 6.84624 69.0162C7.55457 68.2327 9.52213 67.8054 11.7258 68.5176C13.8508 69.3011 68.6278 71.509 77.9934 71.7227C87.359 71.9364 114.669 71.7939 114.669 71.7939L115.692 71.5803C115.613 71.5803 84.0535 71.0817 77.1277 70.7968Z" fill="#F49D3D"/>
<path d="M6.05993 148.645C5.0368 148.432 4.17107 148.788 4.8794 150.212C5.58772 151.637 5.58772 156.124 5.58772 155.483C5.58772 154.842 6.53215 150.212 7.79139 149.998C9.05063 149.856 28.018 148.289 28.018 148.289C28.018 148.289 7.00437 148.788 6.05993 148.645Z" fill="#F49D3D"/>
<path d="M20.6194 177.49C20.6194 177.49 8.02694 178.06 7.00381 178.488C5.98068 178.915 5.50846 184.114 5.50846 184.114C5.50846 184.114 4.72143 179.057 5.03624 178.488C5.35105 177.918 7.47602 176.849 10.5454 177.206C13.6935 177.49 29.2766 177.134 29.2766 177.134L20.6194 177.49Z" fill="#F49D3D"/>
<path d="M21.2489 186.536C21.2489 186.536 6.45278 185.61 5.74446 185.467C5.03613 185.396 5.03613 186.464 5.03613 186.963C5.03613 187.462 5.58705 203.558 5.58705 203.131C5.58705 202.704 6.37408 187.177 6.84629 186.821C7.31851 186.464 9.12867 186.251 10.7027 186.536C12.2768 186.821 55.6419 187.604 55.6419 187.604L21.2489 186.536Z" fill="#F49D3D"/>
<path d="M10.8608 208.117C9.0506 207.974 5.74509 208.259 5.27288 208.829C4.72196 209.328 5.50899 213.744 5.50899 213.744C5.50899 213.744 5.8238 209.755 6.68953 209.541C7.55525 209.328 12.7496 208.758 12.907 208.758L23.2958 209.47C23.3745 209.47 12.5922 208.259 10.8608 208.117Z" fill="#F49D3D"/>
<path d="M196.284 218.302C174.877 218.801 147.174 214.313 147.174 214.313C147.174 214.313 147.016 217.732 171.414 218.943C195.733 220.154 229.733 216.379 229.733 216.379C229.733 216.379 217.691 217.803 196.284 218.302Z" fill="#F49D3D"/>
<path d="M103.416 211.891C103.416 211.891 112.152 212.319 122.934 210.396C133.717 208.473 186.841 203.986 193.137 203.914C199.433 203.843 226.822 208.544 226.822 208.544C226.822 208.544 197.308 205.196 193.216 205.196C189.123 205.196 120.022 211.891 118.291 212.319C116.559 212.746 111.68 214.099 109.004 213.316C106.328 212.533 103.416 211.891 103.416 211.891Z" fill="#F49D3D"/>
<path d="M5.50879 168.659V160.183C5.50879 160.183 11.4902 158.189 20.6197 157.975C29.6705 157.761 98.3778 159.898 98.3778 159.898C98.3778 159.898 25.7354 159.898 22.115 159.898C18.4947 159.898 10.3884 160.681 8.7356 161.18C7.00414 161.75 5.50879 168.659 5.50879 168.659Z" fill="#F49D3D"/>
<path d="M8.34368 113.318C7.71406 113.816 7.00574 115.241 6.61222 115.81C6.21871 116.309 5.51039 119.799 5.51039 119.372C5.51039 118.873 5.35298 116.665 5.51039 115.739C5.66779 114.813 6.92703 114.457 6.84833 113.816C6.76963 113.104 6.76963 112.534 7.47795 112.534C8.18628 112.534 22.5101 112.534 22.5101 112.534C22.5101 112.534 8.9733 112.819 8.34368 113.318Z" fill="#F49D3D"/>
<path d="M30.3005 85.0413C30.3005 85.0413 4.32866 85.7536 4.48606 87.178C4.64347 88.6025 5.5092 108.26 5.5092 108.26C5.5092 108.26 5.5092 89.4572 6.84714 88.3888C8.10638 87.3917 76.4989 83.7593 76.4989 83.7593L30.3005 85.0413Z" fill="#F49D3D"/>
<path d="M119.785 115.953C119.785 115.953 177.474 119.158 196.678 119.87C215.881 120.582 319.139 117.947 319.139 117.947C319.139 117.947 224.145 122.149 208.483 122.505C192.821 122.719 119.785 115.953 119.785 115.953Z" fill="#F49D3D"/>
<path d="M271.209 42.307C271.209 42.307 228.631 38.817 212.733 41.2386C196.835 43.6602 162.599 46.6516 147.095 46.7941C131.512 47.0077 119.785 46.7941 119.785 46.7941C119.785 46.7941 142.845 48.8596 162.835 48.0049C182.826 47.1502 215.015 42.3782 224.538 42.3782C234.061 42.3782 271.209 42.307 271.209 42.307Z" fill="#F49D3D"/>
<path d="M113.096 39.458C113.096 39.458 133.559 43.2329 139.776 42.307C145.994 41.4523 150.795 39.7429 150.795 39.7429C150.795 39.7429 147.332 43.9451 130.096 43.0192C112.939 42.0933 111.994 39.6717 113.096 39.458Z" fill="#F49D3D"/>
<path d="M156.225 34.0451C150.952 32.9767 140.248 32.3357 133.322 33.1191C126.396 33.9026 94.8366 35.0422 94.8366 35.0422L84.7627 35.5408C84.7627 35.5408 86.4942 35.5408 91.7672 35.8257C97.0403 36.1106 131.748 34.1163 137.887 34.0451C144.104 33.9738 159.53 35.3271 160.632 36.3955C161.734 37.535 161.34 40.0279 161.34 40.0279C161.34 40.0279 162.914 38.8883 162.914 37.6775C162.914 36.3955 161.576 35.1134 156.225 34.0451Z" fill="#F49D3D"/>
<path d="M6.4535 160.61L5.50907 160.183L0.157291 158.901C0.157291 158.901 0.393399 159.613 0.157291 159.756C-0.0788169 159.898 4.48593 161.18 4.48593 161.18L5.82388 164.385L6.4535 160.61Z" fill="#F49D3D"/>
<path d="M7.1627 177.348L5.11643 178.416C5.11643 178.416 -0.47145 177.134 0.236873 177.348C0.945197 177.561 4.72292 179.342 5.03773 179.769C5.35254 180.197 7.1627 177.348 7.1627 177.348Z" fill="#F49D3D"/>
<path d="M7.16228 208.402C7.16228 208.402 5.43082 208.829 4.6438 208.402C3.77807 207.975 1.41699 208.402 1.41699 208.402C1.41699 208.402 5.19472 210.895 5.27342 211.393C5.27342 211.963 7.16228 208.402 7.16228 208.402Z" fill="#F49D3D"/>
<path d="M5.51015 86.6797L4.40831 87.1783L1.73242 86.1812C1.73242 86.1812 4.32961 88.674 4.48701 88.8877C4.64442 89.1013 5.11663 92.8762 5.11663 92.8762L5.51015 86.6797Z" fill="#F49D3D"/>
<path d="M5.50918 44.3013L0 44.6574L5.11567 45.8682L5.50918 44.3013Z" fill="#F49D3D"/>
<path d="M7.63415 66.8794L0 67.1643L5.50918 68.5175L7.63415 66.8794Z" fill="#F49D3D"/>
<path d="M0 18.1621L5.19437 19.8715L6.37491 18.5895L0 18.1621Z" fill="#F49D3D"/>
<defs>
<linearGradient id="paint0_linear_839_2" x1="185.934" y1="230.495" x2="180.344" y2="12.7483" gradientUnits="userSpaceOnUse">
<stop stop-color="#86460E"/>
<stop offset="0.9758" stop-color="#B66C13"/>
</linearGradient>
</defs>
</svg>
