<svg width="1140" height="464" viewBox="0 0 1140 464" fill="none" xmlns="http://www.w3.org/2000/svg">
<mask id="path-1-inside-1_342_279" fill="white">
<path fill-rule="evenodd" clip-rule="evenodd" d="M279.404 0L279.029 22.7L309.121 1.51629L307.26 0H860.938L882.183 16.5707L880.107 0H1043.3L1042.69 20.0446L1063.01 0H1140V150.052L1123.37 181.328L1140 178.039V464H1002.96L998.041 444.571L976.926 464H742.629L731.335 444.185L719.566 464H512.405L511.441 449.554L493.697 464H297.12L278.44 451.68L278.274 464H105.19L91.7342 445.692L85.4212 464H0V204.529L14.1176 163.041L0 164.587V0H76.2346L78.7241 18.3469L94.0242 0H279.404Z"/>
</mask>
<path fill-rule="evenodd" clip-rule="evenodd" d="M279.404 0L279.029 22.7L309.121 1.51629L307.26 0H860.938L882.183 16.5707L880.107 0H1043.3L1042.69 20.0446L1063.01 0H1140V150.052L1123.37 181.328L1140 178.039V464H1002.96L998.041 444.571L976.926 464H742.629L731.335 444.185L719.566 464H512.405L511.441 449.554L493.697 464H297.12L278.44 451.68L278.274 464H105.19L91.7342 445.692L85.4212 464H0V204.529L14.1176 163.041L0 164.587V0H76.2346L78.7241 18.3469L94.0242 0H279.404Z" fill="url(#paint0_linear_342_279)"/>
<path d="M279.029 22.7L275.03 22.6339L274.9 30.4987L281.332 25.9708L279.029 22.7ZM279.404 0L283.404 0.0660704L283.471 -4H279.404V0ZM309.121 1.51629L311.424 4.78711L315.739 1.74925L311.648 -1.58452L309.121 1.51629ZM307.26 0V-4H296.02L304.733 3.10082L307.26 0ZM860.938 0L863.398 -3.15405L862.313 -4H860.938V0ZM882.183 16.5707L879.723 19.7248L887.355 25.6776L886.152 16.0736L882.183 16.5707ZM880.107 0V-4H875.575L876.138 0.497163L880.107 0ZM1043.3 0L1047.3 0.120526L1047.42 -4H1043.3V0ZM1042.69 20.0446L1038.69 19.9241L1038.39 29.904L1045.5 22.8923L1042.69 20.0446ZM1063.01 0V-4H1061.37L1060.2 -2.84767L1063.01 0ZM1140 0H1144V-4H1140V0ZM1140 150.052L1143.53 151.93L1144 151.05V150.052H1140ZM1123.37 181.328L1119.84 179.45L1115.88 186.885L1124.14 185.252L1123.37 181.328ZM1140 178.039H1144V173.17L1139.22 174.115L1140 178.039ZM1140 464V468H1144V464H1140ZM1002.96 464L999.082 464.982L999.846 468H1002.96V464ZM998.041 444.571L1001.92 443.589L1000.27 437.082L995.332 441.627L998.041 444.571ZM976.926 464V468H978.486L979.635 466.943L976.926 464ZM742.629 464L739.154 465.981L740.305 468H742.629V464ZM731.335 444.185L734.811 442.204L731.407 436.232L727.896 442.142L731.335 444.185ZM719.566 464V468H721.843L723.005 466.043L719.566 464ZM512.405 464L508.414 464.266L508.663 468H512.405V464ZM511.441 449.554L515.433 449.287L514.917 441.566L508.916 446.452L511.441 449.554ZM493.697 464V468H495.119L496.222 467.102L493.697 464ZM297.12 464L294.918 467.339L295.92 468H297.12V464ZM278.44 451.68L280.642 448.341L274.539 444.316L274.44 451.627L278.44 451.68ZM278.274 464V468H282.22L282.274 464.054L278.274 464ZM105.19 464L101.967 466.369L103.166 468H105.19V464ZM91.7342 445.692L94.9573 443.323L90.4396 437.176L87.9528 444.388L91.7342 445.692ZM85.4212 464V468H88.273L89.2027 465.304L85.4212 464ZM0 464H-4V468H0V464ZM0 204.529L-3.78676 203.24L-4 203.867V204.529H0ZM14.1176 163.041L17.9044 164.33L19.9287 158.381L13.6822 159.065L14.1176 163.041ZM0 164.587H-4V169.049L0.435449 168.563L0 164.587ZM0 0V-4H-4V0H0ZM76.2346 0L80.1982 -0.537838L79.7284 -4H76.2346V0ZM78.7241 18.3469L74.7604 18.8847L75.9812 27.8815L81.7961 20.9087L78.7241 18.3469ZM94.0242 0V-4H92.1516L90.9522 -2.56183L94.0242 0ZM283.029 22.766L283.404 0.0660704L275.405 -0.0660704L275.03 22.6339L283.029 22.766ZM306.818 -1.75452L276.727 19.4291L281.332 25.9708L311.424 4.78711L306.818 -1.75452ZM304.733 3.10082L306.594 4.61711L311.648 -1.58452L309.787 -3.10082L304.733 3.10082ZM307.26 4H860.938V-4H307.26V4ZM858.478 3.15405L879.723 19.7248L884.643 13.4167L863.398 -3.15405L858.478 3.15405ZM886.152 16.0736L884.076 -0.497163L876.138 0.497163L878.214 17.0679L886.152 16.0736ZM880.107 4H1043.3V-4H880.107V4ZM1039.3 -0.120526L1038.69 19.9241L1046.69 20.1651L1047.3 0.120526L1039.3 -0.120526ZM1045.5 22.8923L1065.82 2.84767L1060.2 -2.84767L1039.88 17.197L1045.5 22.8923ZM1063.01 4H1140V-4H1063.01V4ZM1136 0V150.052H1144V0H1136ZM1136.47 148.174L1119.84 179.45L1126.9 183.206L1143.53 151.93L1136.47 148.174ZM1124.14 185.252L1140.78 181.963L1139.22 174.115L1122.59 177.404L1124.14 185.252ZM1136 178.039V464H1144V178.039H1136ZM1140 460H1002.96V468H1140V460ZM1006.84 463.018L1001.92 443.589L994.163 445.552L999.082 464.982L1006.84 463.018ZM995.332 441.627L974.217 461.057L979.635 466.943L1000.75 447.514L995.332 441.627ZM976.926 460H742.629V468H976.926V460ZM746.104 462.019L734.811 442.204L727.86 446.166L739.154 465.981L746.104 462.019ZM727.896 442.142L716.127 461.957L723.005 466.043L734.775 446.228L727.896 442.142ZM719.566 460H512.405V468H719.566V460ZM516.397 463.734L515.433 449.287L507.45 449.82L508.414 464.266L516.397 463.734ZM508.916 446.452L491.172 460.898L496.222 467.102L513.967 452.656L508.916 446.452ZM493.697 460H297.12V468H493.697V460ZM299.322 460.661L280.642 448.341L276.238 455.02L294.918 467.339L299.322 460.661ZM274.44 451.627L274.274 463.946L282.274 464.054L282.44 451.734L274.44 451.627ZM278.274 460H105.19V468H278.274V460ZM108.413 461.631L94.9573 443.323L88.5111 448.061L101.967 466.369L108.413 461.631ZM87.9528 444.388L81.6397 462.696L89.2027 465.304L95.5157 446.996L87.9528 444.388ZM85.4212 460H0V468H85.4212V460ZM4 464V204.529H-4V464H4ZM3.78676 205.817L17.9044 164.33L10.3309 161.753L-3.78676 203.24L3.78676 205.817ZM13.6822 159.065L-0.435449 160.611L0.435449 168.563L14.5531 167.017L13.6822 159.065ZM4 164.587V0H-4V164.587H4ZM0 4H76.2346V-4H0V4ZM72.2709 0.537838L74.7604 18.8847L82.6878 17.809L80.1982 -0.537838L72.2709 0.537838ZM81.7961 20.9087L97.0962 2.56183L90.9522 -2.56183L75.6521 15.785L81.7961 20.9087ZM94.0242 4H279.404V-4H94.0242V4Z" fill="#6D310C" mask="url(#path-1-inside-1_342_279)"/>
<defs>
<linearGradient id="paint0_linear_342_279" x1="183.33" y1="-25.2666" x2="183.33" y2="102.083" gradientUnits="userSpaceOnUse">
<stop stop-color="#672B1E"/>
<stop offset="0.1048" stop-color="#C88872"/>
<stop offset="0.2424" stop-color="#AB451A"/>
<stop offset="0.2512" stop-color="#9E4F2C"/>
<stop offset="0.3579" stop-color="#C66E34"/>
<stop offset="0.4693" stop-color="#DB8D48"/>
<stop offset="0.585" stop-color="#EBA557"/>
<stop offset="0.7069" stop-color="#F6B762"/>
<stop offset="0.839" stop-color="#FDC169"/>
<stop offset="1" stop-color="#FFC46B"/>
</linearGradient>
</defs>
</svg>
