<svg width="535" height="713" viewBox="0 0 535 713" fill="none" xmlns="http://www.w3.org/2000/svg">
<g filter="url(#filter0_b_353_4873)">
<mask id="path-1-outside-1_353_4873" maskUnits="userSpaceOnUse" x="0" y="0" width="535" height="713" fill="black">
<rect fill="white" width="535" height="713"/>
<path fill-rule="evenodd" clip-rule="evenodd" d="M162.724 2H363.543L366.552 19.6784L398.669 2H533V69.7505L519.501 90.5597L533 93.7166V268.61L522.626 268.528L533 298.377V462.089L517.634 477.927L533 476.007V613.422L503.352 631.461L533 635.275V711H388.182L372.485 696.485L367.617 711H164.551L172.774 699.293L132.168 711H2V630.512L13.5168 599.017L2 598.926V462.035L14.729 453.151L2 444.189V268.849L11.0284 270.011L2 228.169V105.763L21.2861 84.4448L2 76.558V2H140.624L151.845 17.4885L162.724 2Z"/>
</mask>
<path fill-rule="evenodd" clip-rule="evenodd" d="M162.724 2H363.543L366.552 19.6784L398.669 2H533V69.7505L519.501 90.5597L533 93.7166V268.61L522.626 268.528L533 298.377V462.089L517.634 477.927L533 476.007V613.422L503.352 631.461L533 635.275V711H388.182L372.485 696.485L367.617 711H164.551L172.774 699.293L132.168 711H2V630.512L13.5168 599.017L2 598.926V462.035L14.729 453.151L2 444.189V268.849L11.0284 270.011L2 228.169V105.763L21.2861 84.4448L2 76.558V2H140.624L151.845 17.4885L162.724 2Z" fill="#FCEFDE"/>
<path d="M363.543 2L365.515 1.66449L365.232 0H363.543V2ZM162.724 2V0H161.685L161.088 0.850456L162.724 2ZM366.552 19.6784L364.58 20.0139L365.052 22.7869L367.516 21.4305L366.552 19.6784ZM398.669 2V0H398.155L397.704 0.24789L398.669 2ZM533 2H535V0H533V2ZM533 69.7505L534.678 70.8389L535 70.3423V69.7505H533ZM519.501 90.5597L517.824 89.4713L516.275 91.859L519.046 92.5071L519.501 90.5597ZM533 93.7166H535V92.1303L533.455 91.7691L533 93.7166ZM533 268.61L532.984 270.61L535 270.626V268.61H533ZM522.626 268.528L522.642 266.528L519.806 266.506L520.737 269.185L522.626 268.528ZM533 298.377H535V298.039L534.889 297.72L533 298.377ZM533 462.089L534.435 463.481L535 462.899V462.089H533ZM517.634 477.927L516.198 476.534L512.237 480.616L517.881 479.911L517.634 477.927ZM533 476.007H535V473.742L532.752 474.023L533 476.007ZM533 613.422L534.04 615.131L535 614.546V613.422H533ZM503.352 631.461L502.312 629.752L497.44 632.717L503.097 633.444L503.352 631.461ZM533 635.275H535V633.516L533.255 633.291L533 635.275ZM533 711V713H535V711H533ZM388.182 711L386.825 712.468L387.4 713H388.182V711ZM372.485 696.485L373.843 695.017L371.572 692.917L370.589 695.849L372.485 696.485ZM367.617 711V713H369.056L369.514 711.636L367.617 711ZM164.551 711L162.914 709.85L160.702 713H164.551V711ZM172.774 699.293L174.41 700.442L177.672 695.799L172.22 697.371L172.774 699.293ZM132.168 711V713H132.45L132.722 712.922L132.168 711ZM2 711H0V713H2V711ZM2 630.512L0.121649 629.825L0 630.157V630.512H2ZM13.5168 599.017L15.3952 599.704L16.3695 597.04L13.5327 597.017L13.5168 599.017ZM2 598.926H0V600.91L1.98417 600.926L2 598.926ZM2 462.035L0.855327 460.395L0 460.992V462.035H2ZM14.729 453.151L15.8736 454.791L18.2132 453.158L15.8803 451.515L14.729 453.151ZM2 444.189H0V445.227L0.84864 445.824L2 444.189ZM2 268.849L2.25519 266.866L0 266.575V268.849H2ZM11.0284 270.011L10.7732 271.994L13.5803 272.355L12.9834 269.589L11.0284 270.011ZM2 228.169H0V228.382L0.0449923 228.59L2 228.169ZM2 105.763L0.516855 104.422L0 104.993V105.763H2ZM21.2861 84.4448L22.7693 85.7865L24.6817 83.6726L22.0431 82.5936L21.2861 84.4448ZM2 76.558H0V77.9009L1.24298 78.4092L2 76.558ZM2 2V0H0V2H2ZM140.624 2L142.244 0.826627L141.645 0H140.624V2ZM151.845 17.4885L150.226 18.6619L151.871 20.9323L153.482 18.6381L151.845 17.4885ZM363.543 0H162.724V4H363.543V0ZM368.523 19.3428L365.515 1.66449L361.572 2.33551L364.58 20.0139L368.523 19.3428ZM397.704 0.24789L365.587 17.9262L367.516 21.4305L399.633 3.75211L397.704 0.24789ZM533 0H398.669V4H533V0ZM535 69.7505V2H531V69.7505H535ZM521.179 91.6481L534.678 70.8389L531.322 68.662L517.824 89.4713L521.179 91.6481ZM533.455 91.7691L519.957 88.6122L519.046 92.5071L532.545 95.664L533.455 91.7691ZM535 268.61V93.7166H531V268.61H535ZM522.61 270.528L532.984 270.61L533.016 266.61L522.642 266.528L522.61 270.528ZM534.889 297.72L524.515 267.872L520.737 269.185L531.111 299.033L534.889 297.72ZM535 462.089V298.377H531V462.089H535ZM519.069 479.319L534.435 463.481L531.565 460.696L516.198 476.534L519.069 479.319ZM532.752 474.023L517.386 475.942L517.881 479.911L533.248 477.992L532.752 474.023ZM535 613.422V476.007H531V613.422H535ZM504.391 633.169L534.04 615.131L531.96 611.713L502.312 629.752L504.391 633.169ZM533.255 633.291L503.607 629.477L503.097 633.444L532.745 637.259L533.255 633.291ZM535 711V635.275H531V711H535ZM388.182 713H533V709H388.182V713ZM371.127 697.954L386.825 712.468L389.54 709.532L373.843 695.017L371.127 697.954ZM369.514 711.636L374.381 697.121L370.589 695.849L365.721 710.364L369.514 711.636ZM164.551 713H367.617V709H164.551V713ZM171.137 698.143L162.914 709.85L166.187 712.15L174.41 700.442L171.137 698.143ZM132.722 712.922L173.328 701.215L172.22 697.371L131.614 709.078L132.722 712.922ZM2 713H132.168V709H2V713ZM0 630.512V711H4V630.512H0ZM11.6385 598.33L0.121649 629.825L3.87835 631.198L15.3952 599.704L11.6385 598.33ZM1.98417 600.926L13.501 601.017L13.5327 597.017L2.01583 596.926L1.98417 600.926ZM0 462.035V598.926H4V462.035H0ZM13.5843 451.511L0.855327 460.395L3.14467 463.675L15.8736 454.791L13.5843 451.511ZM0.84864 445.824L13.5776 454.786L15.8803 451.515L3.15136 442.554L0.84864 445.824ZM0 268.849V444.189H4V268.849H0ZM11.2836 268.027L2.25519 266.866L1.74481 270.833L10.7732 271.994L11.2836 268.027ZM0.0449923 228.59L9.07335 270.433L12.9834 269.589L3.95501 227.747L0.0449923 228.59ZM0 105.763V228.169H4V105.763H0ZM19.803 83.1031L0.516855 104.422L3.48315 107.105L22.7693 85.7865L19.803 83.1031ZM1.24298 78.4092L20.5291 86.296L22.0431 82.5936L2.75702 74.7068L1.24298 78.4092ZM0 2V76.558H4V2H0ZM140.624 0H2V4H140.624V0ZM153.465 16.3152L142.244 0.826627L139.005 3.17337L150.226 18.6619L153.465 16.3152ZM161.088 0.850456L150.209 16.339L153.482 18.6381L164.361 3.14954L161.088 0.850456Z" fill="#81451E" mask="url(#path-1-outside-1_353_4873)"/>
</g>
<defs>
<filter id="filter0_b_353_4873" x="-70" y="-70" width="675" height="853" filterUnits="userSpaceOnUse" color-interpolation-filters="sRGB">
<feFlood flood-opacity="0" result="BackgroundImageFix"/>
<feGaussianBlur in="BackgroundImageFix" stdDeviation="35"/>
<feComposite in2="SourceAlpha" operator="in" result="effect1_backgroundBlur_353_4873"/>
<feBlend mode="normal" in="SourceGraphic" in2="effect1_backgroundBlur_353_4873" result="shape"/>
</filter>
</defs>
</svg>
