<svg width="673" height="1041" viewBox="0 0 673 1041" fill="none" xmlns="http://www.w3.org/2000/svg">
<mask id="path-1-inside-1_353_4842" fill="white">
<path fill-rule="evenodd" clip-rule="evenodd" d="M72.7854 0H0V103.021L7.2702 113.826H0V268.632L5.93558 267.113L0 288.514V457.988L6.68801 535.412L0 524.817V741.107L9.57721 755.472L0 769.362V940.896L14.9962 952.825L0 968.407V1041H115.074L113.642 1023.3L155.885 1041H305.846L298.134 1032.93L351.902 1029.14L353.249 1041H534.645L554.193 1024.31L559.351 1041H673V961.399L664.662 916.762L673 923.395V757.338L659.404 772.888L673 703.318V496.3L660.03 475.752L673 453.158V290.867L657.348 279.433L673 274.654V96.0751L664.992 81.9847L673 82.4656V0H567.375L550.763 10.3473L549.5 0H337.995L348.226 17.8504L311.627 0H156.512L159.296 4.83831L72.7854 0Z"/>
</mask>
<path fill-rule="evenodd" clip-rule="evenodd" d="M72.7854 0H0V103.021L7.2702 113.826H0V268.632L5.93558 267.113L0 288.514V457.988L6.68801 535.412L0 524.817V741.107L9.57721 755.472L0 769.362V940.896L14.9962 952.825L0 968.407V1041H115.074L113.642 1023.3L155.885 1041H305.846L298.134 1032.93L351.902 1029.14L353.249 1041H534.645L554.193 1024.31L559.351 1041H673V961.399L664.662 916.762L673 923.395V757.338L659.404 772.888L673 703.318V496.3L660.03 475.752L673 453.158V290.867L657.348 279.433L673 274.654V96.0751L664.992 81.9847L673 82.4656V0H567.375L550.763 10.3473L549.5 0H337.995L348.226 17.8504L311.627 0H156.512L159.296 4.83831L72.7854 0Z" fill="url(#paint0_linear_353_4842)"/>
<path d="M72.7854 0L73.0088 -3.99376L72.8972 -4H72.7854V0ZM0 0V-4H-4V0H0ZM0 103.021H-4V104.242L-3.31863 105.254L0 103.021ZM7.2702 113.826V117.826H14.783L10.5888 111.593L7.2702 113.826ZM0 113.826V109.826H-4V113.826H0ZM0 268.632H-4V273.785L0.992099 272.507L0 268.632ZM5.93558 267.113L9.79008 268.182L11.6365 261.524L4.94348 263.238L5.93558 267.113ZM0 288.514L-3.85451 287.445L-4 287.97V288.514H0ZM0 457.988H-4V458.16L-3.98516 458.332L0 457.988ZM6.68801 535.412L3.30549 537.547L10.6732 535.068L6.68801 535.412ZM0 524.817L3.38252 522.682L-4 510.986V524.817H0ZM0 741.107H-4V742.318L-3.32815 743.326L0 741.107ZM9.57721 755.472L12.8703 757.743L14.4099 755.51L12.9054 753.254L9.57721 755.472ZM0 769.362L-3.29306 767.091L-4 768.117V769.362H0ZM0 940.896H-4V942.825L-2.49018 944.026L0 940.896ZM14.9962 952.825L17.8783 955.599L20.9267 952.432L17.4864 949.695L14.9962 952.825ZM0 968.407L-2.88203 965.633L-4 966.795V968.407H0ZM0 1041H-4V1045H0V1041ZM115.074 1041V1045H119.41L119.061 1040.68L115.074 1041ZM113.642 1023.3L115.188 1019.61L109.125 1017.07L109.655 1023.62L113.642 1023.3ZM155.885 1041L154.339 1044.69L155.081 1045H155.885V1041ZM305.846 1041V1045H315.204L308.737 1038.24L305.846 1041ZM298.134 1032.93L297.852 1028.94L289.359 1029.54L295.243 1035.7L298.134 1032.93ZM351.902 1029.14L355.876 1028.68L355.444 1024.87L351.62 1025.14L351.902 1029.14ZM353.249 1041L349.274 1041.45L349.677 1045H353.249V1041ZM534.645 1041V1045H536.12L537.242 1044.04L534.645 1041ZM554.193 1024.31L558.015 1023.13L556.22 1017.32L551.596 1021.27L554.193 1024.31ZM559.351 1041L555.529 1042.18L556.401 1045H559.351V1041ZM673 1041V1045H677V1041H673ZM673 961.399H677V961.028L676.932 960.664L673 961.399ZM664.662 916.762L667.153 913.632L658.762 906.957L660.73 917.497L664.662 916.762ZM673 923.395L670.51 926.525L677 931.688V923.395H673ZM673 757.338H677V746.686L669.989 754.705L673 757.338ZM659.404 772.888L655.478 772.121L652.625 786.718L662.415 775.521L659.404 772.888ZM673 703.318L676.926 704.086L677 703.705V703.318H673ZM673 496.3H677V495.143L676.383 494.165L673 496.3ZM660.03 475.752L656.561 473.761L655.361 475.85L656.647 477.887L660.03 475.752ZM673 453.158L676.469 455.149L677 454.224V453.158H673ZM673 290.867H677V288.836L675.36 287.637L673 290.867ZM657.348 279.433L656.18 275.607L648.529 277.943L654.989 282.662L657.348 279.433ZM673 274.654L674.168 278.48L677 277.615V274.654H673ZM673 96.0751H677V95.0178L676.478 94.0985L673 96.0751ZM664.992 81.9847L665.231 77.9919L657.87 77.5499L661.514 83.9612L664.992 81.9847ZM673 82.4656L672.76 86.4584L677 86.713V82.4656H673ZM673 0H677V-4H673V0ZM567.375 0V-4H566.231L565.261 -3.39524L567.375 0ZM550.763 10.3473L546.792 10.8319L547.552 17.0595L552.878 13.7426L550.763 10.3473ZM549.5 0L553.471 -0.484554L553.042 -4H549.5V0ZM337.995 0V-4H331.092L334.524 1.98907L337.995 0ZM348.226 17.8504L346.472 21.4456L358.166 27.1489L351.696 15.8614L348.226 17.8504ZM311.627 0L313.38 -3.59518L312.55 -4H311.627V0ZM156.512 0V-4H149.597L153.045 1.9946L156.512 0ZM159.296 4.83831L159.072 8.83207L166.445 9.24441L162.763 2.84372L159.296 4.83831ZM72.7854 -4H0V4H72.7854V-4ZM-4 0V103.021H4V0H-4ZM-3.31863 105.254L3.95156 116.059L10.5888 111.593L3.31863 100.788L-3.31863 105.254ZM7.2702 109.826H0V117.826H7.2702V109.826ZM-4 113.826V268.632H4V113.826H-4ZM0.992099 272.507L6.92768 270.988L4.94348 263.238L-0.992099 264.757L0.992099 272.507ZM2.08107 266.044L-3.85451 287.445L3.85451 289.583L9.79008 268.182L2.08107 266.044ZM-4 288.514V457.988H4V288.514H-4ZM-3.98516 458.332L2.70285 535.757L10.6732 535.068L3.98516 457.643L-3.98516 458.332ZM10.0705 533.277L3.38252 522.682L-3.38252 526.952L3.30549 537.547L10.0705 533.277ZM-4 524.817V741.107H4V524.817H-4ZM-3.32815 743.326L6.24906 757.691L12.9054 753.254L3.32815 738.888L-3.32815 743.326ZM6.28415 753.202L-3.29306 767.091L3.29306 771.633L12.8703 757.743L6.28415 753.202ZM-4 769.362V940.896H4V769.362H-4ZM-2.49018 944.026L12.5061 955.956L17.4864 949.695L2.49018 937.765L-2.49018 944.026ZM12.1142 950.051L-2.88203 965.633L2.88203 971.181L17.8783 955.599L12.1142 950.051ZM-4 968.407V1041H4V968.407H-4ZM0 1045H115.074V1037H0V1045ZM119.061 1040.68L117.629 1022.98L109.655 1023.62L111.087 1041.32L119.061 1040.68ZM112.096 1026.99L154.339 1044.69L157.431 1037.31L115.188 1019.61L112.096 1026.99ZM155.885 1045H305.846V1037H155.885V1045ZM308.737 1038.24L301.025 1030.17L295.243 1035.7L302.955 1043.76L308.737 1038.24ZM298.416 1036.92L352.184 1033.13L351.62 1025.14L297.852 1028.94L298.416 1036.92ZM347.927 1029.59L349.274 1041.45L357.223 1040.55L355.876 1028.68L347.927 1029.59ZM353.249 1045H534.645V1037H353.249V1045ZM537.242 1044.04L556.79 1027.36L551.596 1021.27L532.048 1037.96L537.242 1044.04ZM550.372 1025.49L555.529 1042.18L563.173 1039.82L558.015 1023.13L550.372 1025.49ZM559.351 1045H673V1037H559.351V1045ZM677 1041V961.399H669V1041H677ZM676.932 960.664L668.594 916.028L660.73 917.497L669.068 962.133L676.932 960.664ZM662.172 919.893L670.51 926.525L675.49 920.264L667.153 913.632L662.172 919.893ZM677 923.395V757.338H669V923.395H677ZM669.989 754.705L656.392 770.256L662.415 775.521L676.011 759.971L669.989 754.705ZM663.33 773.656L676.926 704.086L669.074 702.551L655.478 772.121L663.33 773.656ZM677 703.318V496.3H669V703.318H677ZM676.383 494.165L663.412 473.617L656.647 477.887L669.617 498.435L676.383 494.165ZM663.499 477.744L676.469 455.149L669.531 451.167L656.561 473.761L663.499 477.744ZM677 453.158V290.867H669V453.158H677ZM675.36 287.637L659.708 276.203L654.989 282.662L670.64 294.097L675.36 287.637ZM658.516 283.258L674.168 278.48L671.832 270.828L656.18 275.607L658.516 283.258ZM677 274.654V96.0751H669V274.654H677ZM676.478 94.0985L668.469 80.0082L661.514 83.9612L669.522 98.0516L676.478 94.0985ZM664.752 85.9775L672.76 86.4584L673.24 78.4728L665.231 77.9919L664.752 85.9775ZM677 82.4656V0H669V82.4656H677ZM673 -4H567.375V4H673V-4ZM565.261 -3.39524L548.648 6.95207L552.878 13.7426L569.49 3.39524L565.261 -3.39524ZM554.734 9.86276L553.471 -0.484554L545.53 0.484554L546.792 10.8319L554.734 9.86276ZM549.5 -4H337.995V4H549.5V-4ZM334.524 1.98907L344.755 19.8395L351.696 15.8614L341.465 -1.98907L334.524 1.98907ZM349.979 14.2553L313.38 -3.59518L309.873 3.59518L346.472 21.4456L349.979 14.2553ZM311.627 -4H156.512V4H311.627V-4ZM153.045 1.9946L155.828 6.83291L162.763 2.84372L159.979 -1.9946L153.045 1.9946ZM159.519 0.844556L73.0088 -3.99376L72.5621 3.99376L159.072 8.83207L159.519 0.844556Z" fill="#6D310C" mask="url(#path-1-inside-1_353_4842)"/>
<defs>
<linearGradient id="paint0_linear_353_4842" x1="108.229" y1="-80.4699" x2="108.229" y2="325.118" gradientUnits="userSpaceOnUse">
<stop stop-color="#672B1E"/>
<stop offset="0.1048" stop-color="#C88872"/>
<stop offset="0.2424" stop-color="#AB451A"/>
<stop offset="0.2512" stop-color="#9E4F2C"/>
<stop offset="0.3579" stop-color="#C66E34"/>
<stop offset="0.4693" stop-color="#DB8D48"/>
<stop offset="0.585" stop-color="#EBA557"/>
<stop offset="0.7069" stop-color="#F6B762"/>
<stop offset="0.839" stop-color="#FDC169"/>
<stop offset="1" stop-color="#FFC46B"/>
</linearGradient>
</defs>
</svg>
